<?xml version="1.0" standalone="no"?>
<!DOCTYPE svg PUBLIC "-//W3C//DTD SVG 20010904//EN"
 "http://www.w3.org/TR/2001/REC-SVG-20010904/DTD/svg10.dtd">
<svg version="1.0" xmlns="http://www.w3.org/2000/svg"
 width="512.000000pt" height="512.000000pt" viewBox="0 0 512.000000 512.000000"
 preserveAspectRatio="xMidYMid meet">

<g transform="translate(0.000000,512.000000) scale(0.100000,-0.100000)"
fill="#000000" stroke="none">
<path d="M0 2560 l0 -2560 2560 0 2560 0 0 2560 0 2560 -2560 0 -2560 0 0
-2560z m2916 2502 c6 -4 13 -15 17 -25 5 -14 3 -18 -11 -15 -9 2 -16 10 -14
16 1 7 -5 12 -13 12 -8 0 -15 5 -15 10 0 12 20 13 36 2z m-733 -17 c8 -19 -13
-31 -24 -14 -13 20 -11 29 5 29 8 0 16 -7 19 -15z m265 8 c-15 -2 -42 -2 -60
0 -18 2 -6 4 27 4 33 0 48 -2 33 -4z m260 0 c-16 -2 -40 -2 -55 0 -16 2 -3 4
27 4 30 0 43 -2 28 -4z m-453 -13 c-3 -5 -13 -10 -21 -10 -8 0 -14 5 -14 10 0
6 9 10 21 10 11 0 17 -4 14 -10z m63 3 c-10 -2 -26 -2 -35 0 -10 3 -2 5 17 5
19 0 27 -2 18 -5z m495 0 c-7 -2 -21 -2 -30 0 -10 3 -4 5 12 5 17 0 24 -2 18
-5z m62 -3 c8 -13 -15 -13 -35 0 -12 8 -11 10 7 10 12 0 25 -4 28 -10z m125 4
c0 -13 -29 -34 -35 -24 -3 5 -1 10 5 10 6 0 8 5 5 10 -3 6 1 10 9 10 9 0 16
-3 16 -6z m-860 -18 c0 -11 -19 -15 -25 -6 -3 5 1 10 9 10 9 0 16 -2 16 -4z
m-50 -10 c0 -11 -19 -15 -25 -6 -3 5 1 10 9 10 9 0 16 -2 16 -4z m937 -2 c-3
-3 -12 -4 -19 -1 -8 3 -5 6 6 6 11 1 17 -2 13 -5z m-1079 -23 c-2 -9 -10 -16
-18 -17 -8 0 -23 -4 -33 -8 -9 -5 -26 -6 -37 -3 -11 3 -18 2 -15 -3 3 -4 -4
-10 -15 -13 -22 -6 -35 7 -25 23 3 6 12 10 20 10 7 0 15 6 18 14 4 9 22 14 57
14 42 0 50 -3 48 -17z m1248 4 c-3 -8 -1 -15 3 -15 5 0 17 -3 26 -6 12 -5 16
-2 13 11 -2 13 5 19 25 22 15 2 27 -1 27 -7 0 -5 -4 -10 -10 -10 -6 0 -6 -9 0
-26 9 -22 8 -25 -7 -20 -10 3 -31 8 -48 12 -16 4 -36 11 -42 17 -7 5 -13 6
-13 2 0 -4 -6 -2 -13 4 -8 6 -16 9 -18 6 -3 -2 -27 2 -54 10 l-50 13 84 1 c70
1 82 -1 77 -14z m-1216 -5 c0 -5 -4 -10 -10 -10 -5 0 -10 5 -10 10 0 6 5 10
10 10 6 0 10 -4 10 -10z m900 -26 c699 -100 1307 -481 1697 -1064 150 -225
265 -486 332 -750 46 -185 61 -303 68 -514 13 -420 -59 -772 -234 -1143 -44
-92 -36 -94 -96 17 -16 30 -44 80 -61 110 -29 50 -56 105 -91 185 -7 17 -29
65 -49 108 -20 44 -36 81 -36 84 0 3 -15 38 -34 77 -18 39 -42 89 -51 111 -73
165 -101 213 -171 297 -213 256 -249 292 -479 478 -38 30 -75 63 -84 74 -15
18 -39 46 -126 151 -22 27 -66 78 -97 114 -32 36 -71 92 -87 126 -16 33 -38
67 -48 76 -20 18 -28 27 -94 114 -49 64 -183 195 -199 195 -17 0 -80 62 -73
73 4 6 1 7 -6 2 -8 -4 -23 3 -39 17 -15 14 -57 46 -94 72 -38 26 -68 52 -68
59 0 7 -14 20 -31 30 -24 13 -35 15 -45 6 -11 -9 -14 -8 -14 3 0 8 -10 20 -22
27 -13 6 -36 20 -53 31 -16 10 -52 31 -80 45 -27 14 -66 36 -85 47 -19 12 -54
25 -77 29 -23 5 -60 20 -83 35 -41 27 -131 55 -185 58 -16 0 -32 4 -35 7 -11
13 -87 25 -109 17 -20 -7 -22 -10 -10 -25 13 -15 12 -15 -8 -5 -12 7 -25 17
-28 22 -3 6 -14 10 -23 10 -16 0 19 -26 73 -55 11 -6 21 -21 23 -33 5 -31 19
-27 27 8 8 36 40 41 48 8 8 -32 30 -89 47 -118 8 -14 15 -27 15 -30 1 -3 11
-24 23 -47 25 -49 27 -54 10 -48 -7 3 -19 1 -26 -4 -12 -7 -11 -14 3 -41 l17
-32 61 83 c34 45 75 101 91 123 16 23 33 44 39 48 6 3 25 -19 44 -50 19 -31
38 -59 42 -62 14 -9 191 -276 191 -288 0 -11 -22 -16 -35 -9 -2 1 -10 -6 -17
-15 -11 -15 -36 -19 -149 -23 -75 -3 -176 -5 -225 -6 -76 0 -85 -2 -64 -12 14
-6 30 -15 35 -20 6 -4 66 -45 135 -90 212 -140 233 -157 195 -157 -8 0 -15 -2
-15 -4 0 -3 25 -69 56 -148 84 -212 83 -192 16 -236 -32 -20 -65 -41 -74 -47
-9 -5 -95 -63 -192 -127 -96 -65 -177 -118 -180 -118 -3 0 -6 71 -6 158 0 105
-4 152 -10 142 -5 -8 -10 -43 -10 -77 0 -35 -2 -63 -4 -63 -2 0 -43 40 -91 90
-66 66 -92 87 -101 79 -8 -7 -14 -7 -19 1 -3 5 -28 10 -56 10 l-49 0 0 49 c0
28 -4 53 -10 56 -5 3 -10 42 -10 85 l0 79 -62 4 -63 3 68 2 c37 1 67 3 67 5 0
8 -154 157 -162 157 -13 0 -10 -7 22 -41 16 -18 27 -35 24 -38 -3 -3 -13 5
-23 18 -14 18 -20 21 -24 10 -3 -8 -6 -5 -6 9 -1 12 -6 22 -11 22 -11 0 -50
36 -50 47 0 3 -7 15 -17 25 -31 34 -3 18 31 -18 30 -31 33 -33 29 -12 -3 13
-21 35 -41 51 -33 25 -37 26 -59 12 -13 -9 -23 -11 -23 -6 0 5 5 11 11 13 13
4 -3 22 -41 48 -31 21 -57 43 -43 36 17 -9 43 4 43 20 0 12 -4 12 -21 3 -20
-10 -21 -9 -15 15 7 30 -8 35 -23 9 -10 -17 -10 -17 -11 0 0 9 -5 17 -11 17
-6 0 -8 9 -4 22 6 17 4 20 -9 15 -10 -4 -30 9 -58 39 l-43 45 1 -229 0 -229
32 -48 c40 -61 41 -77 2 -35 -17 18 -33 31 -35 28 -3 -3 -7 -115 -9 -249 -3
-134 -7 -257 -11 -273 -3 -15 -1 -34 5 -41 8 -9 8 -20 2 -32 -5 -10 -10 -55
-10 -100 0 -45 -3 -87 -7 -93 -10 -17 -42 6 -128 94 -44 44 -66 63 -49 41 26
-35 77 -85 177 -173 34 -29 111 -82 121 -82 3 0 17 -9 31 -20 26 -21 103 -28
103 -11 0 6 -15 22 -34 36 -53 41 -128 168 -134 227 l-5 49 109 -6 c305 -15
345 -18 333 -26 -10 -6 -10 -10 0 -23 10 -12 32 -16 87 -16 72 0 74 -1 80 -27
4 -16 11 -33 16 -40 5 -7 5 -14 -2 -18 -14 -9 -13 -35 3 -35 23 0 71 -127 83
-220 7 -54 27 -101 96 -230 54 -98 55 -126 15 -335 -7 -38 -16 -77 -19 -85 -4
-8 -9 -40 -12 -70 -3 -30 -15 -125 -27 -210 -25 -179 -38 -600 -20 -660 6 -19
18 -73 26 -120 9 -47 21 -89 26 -95 5 -5 9 -20 9 -33 0 -21 78 -275 116 -374
l14 -37 -33 5 c-17 3 -81 19 -142 36 -814 223 -1461 860 -1694 1669 -65 223
-83 350 -88 624 -6 267 -1 332 43 550 181 913 890 1647 1809 1873 275 68 626
86 905 46z m-1089 -27 c-13 -13 -61 -18 -61 -7 0 5 9 10 19 10 10 0 22 8 25
17 6 15 8 15 16 3 5 -8 6 -18 1 -23z m-96 -7 c-5 -16 -3 -19 12 -15 10 3 0 -4
-22 -15 -44 -21 -70 -26 -60 -10 3 6 16 10 28 10 20 1 20 2 5 11 -22 12 -24
33 -3 25 8 -3 15 -1 15 4 0 6 7 10 16 10 11 0 14 -6 9 -20z m1658 5 c11 -7 26
-11 34 -8 8 3 19 0 24 -8 6 -11 9 -8 9 9 0 13 6 22 15 22 8 0 15 -7 15 -15 0
-9 7 -18 15 -21 8 -4 15 -12 15 -20 0 -16 4 -17 90 -18 52 -1 65 -4 68 -18 2
-9 -5 -19 -15 -22 -10 -3 -1 -3 20 0 28 4 37 1 37 -9 0 -8 7 -17 15 -21 8 -3
15 -10 15 -16 0 -17 -33 -11 -80 16 -25 14 -61 32 -80 39 -19 7 -71 27 -115
45 -79 32 -98 38 -122 39 -7 1 -13 6 -13 11 0 14 32 12 53 -5z m-1749 -51 c4
-11 -5 -19 -32 -30 -20 -8 -63 -28 -95 -44 -34 -18 -68 -28 -85 -26 -15 2 -21
1 -14 -1 10 -4 10 -8 1 -19 -6 -8 -15 -14 -19 -14 -9 0 -205 -118 -253 -153
-16 -11 -40 -30 -54 -43 -27 -25 -63 -32 -63 -13 0 6 7 9 14 6 10 -4 13 -1 9
9 -4 11 0 15 13 12 13 -2 19 3 19 17 0 14 7 20 25 21 46 2 56 12 52 49 -3 29
-1 35 14 35 27 0 48 -16 40 -29 -11 -18 -1 -13 19 9 15 17 16 20 3 15 -12 -5
-16 0 -15 22 1 15 6 31 12 35 20 15 52 8 63 -14 l11 -23 7 23 c3 12 12 22 19
22 7 0 15 10 19 23 7 28 50 47 98 44 20 -2 35 0 32 4 -2 4 4 12 13 18 17 10
17 10 1 11 -20 0 -24 15 -6 26 6 4 19 -2 29 -14 l17 -21 5 21 c5 17 9 19 21 9
11 -10 19 -9 35 1 12 7 21 16 21 20 0 14 18 8 24 -8z m2216 -78 c0 -8 -4 -18
-10 -21 -13 -8 -13 -55 -1 -55 5 0 11 5 13 11 2 7 13 9 27 4 13 -4 20 -12 17
-20 -6 -17 23 -53 44 -56 8 -1 28 3 44 10 37 15 53 2 52 -42 -2 -31 1 -33 26
-32 27 2 47 -23 34 -44 -7 -11 20 -22 38 -15 8 3 19 -3 25 -15 25 -46 7 -42
-83 22 -60 41 -74 56 -70 72 4 15 3 16 -4 6 -11 -16 -36 -5 -26 11 4 7 2 8 -5
4 -6 -4 -28 3 -49 16 -66 41 -77 47 -104 59 -16 6 -28 15 -28 19 0 4 -12 11
-26 14 -27 7 -28 32 0 30 9 -1 16 2 16 7 0 5 9 9 20 9 11 0 20 5 20 10 0 6 7
10 15 10 8 0 15 -6 15 -14z m-2841 -275 c18 -18 17 -19 -40 -65 -84 -68 -248
-235 -319 -324 -34 -42 -70 -87 -80 -98 -10 -12 -34 -45 -52 -73 -19 -28 -38
-48 -42 -44 -4 4 -4 0 0 -10 3 -10 1 -17 -5 -17 -6 0 -11 -4 -11 -10 0 -5 -17
-38 -38 -72 -21 -35 -67 -122 -102 -194 -43 -88 -68 -130 -77 -127 -17 7 -18
56 0 50 6 -2 11 -13 9 -23 -2 -16 -1 -17 7 -4 15 22 14 28 -9 35 -25 8 -26 35
-1 63 22 27 41 28 42 5 0 -14 2 -15 6 -3 3 8 11 18 17 23 8 5 7 9 -1 15 -14 9
-9 55 7 60 5 2 10 10 10 17 0 8 9 16 19 20 13 4 18 12 14 21 -4 10 2 17 15 21
19 4 19 7 7 20 -22 22 -19 46 4 38 16 -5 18 -2 14 15 -4 16 0 23 16 27 13 3
20 11 17 19 -10 25 5 45 32 42 22 -3 25 1 29 37 2 22 11 44 20 49 13 7 13 10
2 17 -11 7 -10 11 6 23 11 9 26 13 33 11 6 -2 12 4 12 13 0 12 13 23 35 32 32
12 47 30 27 30 -5 0 -9 14 -9 30 0 32 14 38 36 18 11 -11 12 -10 6 1 -6 11 -2
13 18 7 21 -5 25 -3 21 9 -4 8 -2 15 4 15 5 0 9 8 8 17 0 10 7 19 19 21 42 7
49 12 37 24 -16 16 -15 28 3 28 8 0 15 -4 15 -10 0 -5 9 -2 19 7 11 9 17 23
13 31 -4 11 -1 14 9 10 10 -4 15 1 15 12 0 10 -6 16 -13 13 -7 -3 -13 2 -13
10 0 12 9 14 38 10 33 -4 38 -3 38 16 0 12 -4 21 -8 21 -4 0 -8 5 -8 11 0 6
17 9 43 8 31 -2 41 1 39 11 -2 7 3 17 10 21 10 7 9 9 -4 9 -10 0 -18 7 -18 15
0 21 36 19 59 -4z m3187 -55 c3 -8 13 -17 22 -21 14 -5 15 -4 5 6 -20 20 -16
29 12 29 14 0 25 -4 25 -10 0 -5 -4 -10 -8 -10 -10 0 -9 -36 1 -46 4 -4 7 -2
7 4 0 7 7 12 15 12 8 0 15 -4 15 -10 0 -5 -7 -10 -16 -10 -8 0 -12 -5 -8 -11
4 -8 1 -8 -12 -1 -28 16 -90 82 -76 82 7 0 15 -6 18 -14z m104 -16 c0 -5 -7
-10 -15 -10 -8 0 -15 5 -15 10 0 6 7 10 15 10 8 0 15 -4 15 -10z m55 -74 c-6
-30 -5 -31 29 -32 40 -1 49 -6 51 -32 2 -31 15 -42 41 -36 29 8 31 -2 3 -24
-16 -14 -18 -22 -10 -42 7 -18 10 -20 10 -7 1 20 21 24 21 3 0 -23 -29 -27
-50 -6 -11 11 -17 26 -14 34 3 8 1 23 -5 33 -9 15 -10 13 -5 -12 5 -27 -2 -22
-71 49 l-76 79 27 18 c37 24 56 15 49 -25z m183 -223 c17 -4 22 -12 22 -39 0
-24 4 -32 14 -28 8 3 17 1 20 -5 4 -6 13 -8 21 -4 17 6 19 -10 6 -35 -6 -12
-3 -24 10 -41 17 -21 24 -20 20 2 0 4 10 7 23 7 21 0 25 -5 24 -30 -1 -17 -7
-34 -14 -38 -21 -12 19 -66 48 -67 18 0 23 -6 24 -27 1 -16 -3 -28 -8 -28 -5
0 -1 -11 8 -25 13 -20 19 -23 36 -14 26 14 35 4 14 -16 -21 -21 -20 -24 4 -18
11 3 20 0 20 -6 0 -6 -4 -11 -8 -11 -4 0 -8 -9 -8 -20 0 -11 6 -20 12 -20 7 0
15 -6 18 -12 5 -10 7 -10 12 0 8 17 34 15 34 -3 0 -8 -8 -15 -17 -15 -11 0
-14 -3 -7 -8 18 -12 26 -45 12 -54 -10 -8 -10 -11 0 -15 6 -2 12 -16 12 -29 0
-21 3 -23 19 -14 26 13 31 13 31 -5 0 -8 -4 -15 -9 -15 -5 0 -11 -12 -14 -27
-4 -24 -4 -26 8 -10 7 9 15 17 19 17 9 0 7 -53 -3 -69 -14 -22 8 -59 40 -66
29 -6 35 -15 22 -28 -3 -4 -12 -2 -20 4 -14 12 -18 2 -13 -31 4 -31 -11 0 -41
81 -17 46 -33 93 -36 104 -7 23 -108 224 -150 300 -27 49 -122 195 -133 205
-3 3 -17 21 -30 40 -13 19 -42 57 -64 84 -29 35 -35 47 -21 42 11 -5 30 -11
43 -13z m-3323 -321 c-3 -3 -11 0 -18 7 -9 10 -8 11 6 5 10 -3 15 -9 12 -12z
m-45 -77 c0 -44 4 -64 13 -68 11 -4 12 3 7 34 -4 22 -3 42 1 45 5 3 9 0 9 -6
0 -7 7 -9 16 -6 12 5 14 1 9 -15 -7 -22 27 -65 44 -54 5 3 12 -4 16 -14 3 -11
15 -23 26 -26 10 -4 19 -15 19 -25 0 -10 5 -22 10 -25 18 -11 11 -47 -10 -52
-35 -9 -21 -21 28 -23 26 -1 72 -2 102 -3 33 -1 58 -7 63 -15 7 -10 12 -10 22
-2 11 9 19 7 34 -7 19 -18 17 -18 -72 -10 -51 5 -100 13 -110 18 -9 5 -74 12
-142 16 -124 6 -162 17 -85 25 22 2 49 0 60 -4 11 -4 20 -3 20 2 0 6 9 6 23 1
27 -10 57 7 57 33 0 25 -110 24 -110 -1 -1 -11 -8 -5 -20 17 -18 33 -19 34
-21 10 -1 -14 -2 -31 -2 -37 1 -9 -5 -10 -17 -3 -15 8 -17 26 -17 144 0 112 3
134 14 125 8 -7 13 -34 13 -74z m81 25 c6 0 7 -5 4 -10 -10 -16 -25 -1 -24 23
1 17 2 18 6 5 2 -10 9 -18 14 -18z m59 -92 c0 -6 -6 -5 -15 2 -8 7 -15 14 -15
16 0 2 7 1 15 -2 8 -4 15 -11 15 -16z m60 -42 c0 -3 -4 -8 -10 -11 -5 -3 -10
-1 -10 4 0 6 5 11 10 11 6 0 10 -2 10 -4z m75 -67 c11 -16 1 -19 -13 -3 -7 8
-8 14 -3 14 5 0 13 -5 16 -11z m-11 -27 c2 -4 -5 -9 -17 -9 -17 -2 -19 0 -7 7
18 12 18 12 24 2z m-1200 -139 c-10 -27 -19 -53 -20 -60 -5 -30 -26 -83 -33
-83 -14 0 -10 58 5 64 21 8 17 26 -6 26 -28 0 -25 20 3 21 12 0 16 3 10 6 -21
8 -15 30 11 37 13 3 26 16 29 28 4 12 9 19 13 15 4 -3 -1 -28 -12 -54z m1273
11 c-3 -3 -12 -4 -19 -1 -8 3 -5 6 6 6 11 1 17 -2 13 -5z m3503 -119 c0 -8 -7
-15 -15 -15 -8 0 -15 -5 -15 -12 0 -6 -2 -9 -5 -7 -2 3 -2 15 2 27 6 25 33 30
33 7z m-4839 -76 c-5 -13 -10 -19 -10 -12 -1 15 10 45 15 40 3 -2 0 -15 -5
-28z m4859 22 c0 -15 -31 -42 -41 -36 -11 8 12 45 28 45 7 0 13 -4 13 -9z
m-3756 -65 c-3 -15 -8 -25 -11 -23 -2 3 -1 17 3 31 3 15 8 25 11 23 2 -3 1
-17 -3 -31z m3756 4 c0 -5 -9 -10 -20 -10 -11 0 -20 5 -20 10 0 6 9 10 20 10
11 0 20 -4 20 -10z m-4878 -55 c-3 -18 -9 -24 -19 -21 -8 3 -17 6 -19 6 -2 0
-4 7 -4 15 0 18 16 20 23 3 3 -7 6 -3 6 10 1 13 5 21 10 18 4 -3 6 -17 3 -31z
m4868 25 c0 -5 -4 -10 -10 -10 -5 0 -10 5 -10 10 0 6 5 10 10 10 6 0 10 -4 10
-10z m-3760 -20 c0 -5 -4 -10 -10 -10 -5 0 -10 5 -10 10 0 6 5 10 10 10 6 0
10 -4 10 -10z m3771 -30 c10 0 59 -45 59 -55 0 -13 -30 -3 -39 13 -9 15 -11
14 -11 -8 -1 -23 -2 -23 -9 -5 -5 11 -11 34 -13 50 -3 17 -3 24 -1 18 3 -7 9
-13 14 -13z m-3791 0 c0 -5 -4 -10 -10 -10 -5 0 -10 5 -10 10 0 6 5 10 10 10
6 0 10 -4 10 -10z m-1104 -34 c-6 -27 -19 -99 -20 -108 -1 -3 -5 -10 -10 -15
-4 -4 -5 12 -2 37 4 25 6 62 6 82 0 30 3 36 15 32 9 -4 13 -14 11 -28z m1094
4 c0 -5 -4 -10 -10 -10 -5 0 -10 5 -10 10 0 6 5 10 10 10 6 0 10 -4 10 -10z
m-20 -30 c0 -5 -5 -10 -11 -10 -5 0 -7 5 -4 10 3 6 8 10 11 10 2 0 4 -4 4 -10z
m-15 -29 c3 -5 1 -12 -5 -16 -5 -3 -10 1 -10 9 0 18 6 21 15 7z m3865 -11 c0
-5 -7 -10 -15 -10 -8 0 -15 5 -15 10 0 6 7 10 15 10 8 0 15 -4 15 -10z m-4982
-48 c2 -7 -3 -12 -12 -12 -9 0 -16 7 -16 16 0 17 22 14 28 -4z m4982 2 c0 -8
-4 -12 -10 -9 -5 3 -10 10 -10 16 0 5 5 9 10 9 6 0 10 -7 10 -16z m-4990 -39
c0 -8 5 -15 10 -15 6 0 10 5 10 10 0 6 5 10 11 10 7 0 8 -7 4 -17 -4 -10 -8
-31 -9 -47 -1 -24 -6 -30 -28 -33 -32 -4 -38 12 -9 20 13 3 18 12 16 23 -2 11
-4 22 -4 27 -1 4 -8 7 -16 7 -8 0 -15 7 -15 15 0 8 7 15 15 15 8 0 15 -7 15
-15z m4995 -16 c-4 -5 -3 -9 2 -9 4 0 9 -33 10 -73 1 -69 1 -70 -7 -22 -20
115 -20 126 -10 120 6 -3 8 -11 5 -16z m-4978 -136 c-3 -10 -5 -4 -5 12 0 17
2 24 5 18 2 -7 2 -21 0 -30z m-10 -130 c-2 -16 -4 -5 -4 22 0 28 2 40 4 28 2
-13 2 -35 0 -50z m5012 20 l-1 -48 -9 35 c-4 19 -6 41 -4 48 9 25 15 10 14
-35z m-5008 -257 c3 -40 0 -50 -14 -52 -11 -1 -17 5 -17 17 0 11 5 17 10 14 6
-4 10 10 10 36 0 57 7 46 11 -15z m5009 -2 c0 -30 -4 -53 -9 -50 -4 3 -7 18
-6 33 1 15 3 38 3 51 4 45 12 20 12 -34z m-5020 -89 c0 -8 -7 -15 -15 -15 -8
0 -15 7 -15 15 0 8 7 15 15 15 8 0 15 -7 15 -15z m5008 -60 c-1 -41 -5 -75
-10 -75 -5 0 -7 -4 -3 -9 3 -5 0 -13 -6 -17 -8 -5 -10 0 -6 17 3 13 9 54 12
92 4 37 9 67 11 67 3 0 3 -34 2 -75z m-4991 28 c-3 -10 -5 -4 -5 12 0 17 2 24
5 18 2 -7 2 -21 0 -30z m-4 -35 c10 -8 18 -33 21 -65 2 -29 7 -57 10 -62 4 -5
2 -12 -4 -16 -5 -3 -10 1 -10 9 0 9 -4 16 -10 16 -5 0 -10 -4 -10 -10 0 -5 -7
-10 -15 -10 -8 0 -15 5 -15 10 0 6 6 10 14 10 16 0 29 37 16 45 -5 3 -7 15 -5
26 3 15 -2 23 -15 26 -22 6 -28 33 -7 33 7 0 21 -6 30 -12z m4973 -145 c-11
-11 -19 6 -11 24 8 17 8 17 12 0 3 -10 2 -21 -1 -24z m-4927 -68 c0 -16 -2
-15 -15 8 -8 15 -12 33 -8 39 9 14 22 -15 23 -47z m4928 29 c-9 -9 -28 6 -21
18 4 6 10 6 17 -1 6 -6 8 -13 4 -17z m-14 -51 c5 -25 3 -33 -8 -33 -16 0 -18
12 -9 48 8 28 9 26 17 -15z m-4903 -18 c0 -8 -7 -15 -15 -15 -16 0 -20 12 -8
23 11 12 23 8 23 -8z m10 -35 c0 -5 -4 -10 -10 -10 -5 0 -10 5 -10 10 0 6 5
10 10 10 6 0 10 -4 10 -10z m5 -30 c3 -6 -1 -13 -10 -16 -19 -8 -30 0 -20 15
8 14 22 14 30 1z m4859 -17 c-7 -31 -12 -38 -18 -32 -7 7 6 59 15 59 5 0 6
-12 3 -27z m-4844 -17 c0 -3 -4 -8 -10 -11 -5 -3 -10 -1 -10 4 0 6 5 11 10 11
6 0 10 -2 10 -4z m4848 -43 c12 -22 5 -43 -14 -43 -8 0 -14 -4 -14 -10 0 -5 4
-10 9 -10 5 0 9 -16 9 -35 0 -30 -3 -35 -24 -35 -13 0 -28 -9 -34 -21 -24 -44
-21 -6 5 65 17 48 32 73 39 69 6 -3 5 0 -1 8 -17 17 -16 29 2 29 8 0 18 -8 23
-17z m-4819 -73 c5 -16 7 -30 4 -30 -3 0 0 -7 7 -15 16 -19 3 -75 -17 -75 -10
0 -14 6 -10 20 3 13 0 20 -9 20 -8 0 -14 5 -14 10 0 6 5 10 11 10 5 0 7 5 3
11 -3 6 0 15 7 20 11 7 11 9 -2 9 -12 0 -15 7 -11 25 6 33 18 32 31 -5z m65
-188 c6 -18 4 -22 -13 -22 -12 0 -21 5 -21 10 0 6 4 10 9 10 6 0 3 16 -5 35
-20 50 -16 78 5 30 10 -22 21 -50 25 -63z m4682 32 c3 -34 -5 -51 -17 -33 -6
10 -9 8 -9 -8 0 -13 5 -23 10 -23 6 0 10 -7 10 -16 0 -11 -5 -14 -17 -9 -33
12 -38 10 -35 -12 2 -14 -2 -23 -10 -23 -10 0 -10 -2 1 -9 14 -9 7 -51 -10
-51 -5 0 -9 -4 -9 -10 0 -5 7 -10 15 -10 8 0 15 -5 15 -11 0 -7 -9 -9 -23 -5
-37 9 -75 -34 -68 -76 0 -5 -3 -8 -9 -8 -5 0 -10 -9 -10 -21 0 -15 -5 -19 -16
-15 -12 5 -14 0 -10 -27 6 -40 -7 -68 -25 -50 -19 19 -49 -34 -38 -65 11 -29
-9 -72 -33 -72 -15 0 -18 5 -12 23 6 22 6 22 -15 -2 -12 -13 -19 -31 -16 -40
7 -23 -9 -43 -38 -46 -24 -3 -23 1 28 73 30 43 58 82 62 87 16 19 121 200 144
247 16 33 26 44 32 35 5 -7 6 -3 2 11 -4 13 -2 28 3 35 5 7 24 49 42 95 33 84
49 94 56 36z m-4652 -90 c7 -19 -3 -84 -13 -84 -4 0 -17 9 -29 20 -30 28 -29
67 1 73 12 2 25 5 28 6 4 0 10 -6 13 -15z m67 -146 c28 -57 57 -110 65 -119 8
-9 12 -24 8 -33 -5 -12 -2 -15 10 -10 12 4 16 0 16 -15 0 -12 4 -21 8 -21 4 0
16 -15 27 -32 10 -18 27 -42 37 -52 10 -11 18 -23 18 -27 0 -4 9 -18 19 -31
107 -128 175 -205 239 -271 88 -91 95 -107 46 -105 -34 1 -45 12 -21 21 9 4 9
7 -1 15 -7 5 -12 13 -10 18 5 14 -63 84 -74 77 -6 -3 -14 1 -19 8 -6 10 -9 11
-9 2 0 -7 -7 -13 -15 -13 -20 0 -19 20 2 36 20 14 17 21 -12 26 -11 1 -25 10
-32 18 -11 13 -12 13 -13 -2 0 -19 -15 -24 -24 -9 -9 14 5 41 21 41 29 0 6 25
-35 36 -34 11 -40 10 -35 -2 3 -8 0 -14 -6 -14 -14 0 -14 11 -1 44 8 22 7 26
-9 26 -44 0 -70 31 -38 43 7 3 5 6 -5 6 -21 1 -25 37 -5 44 7 3 5 6 -5 6 -11
1 -18 9 -18 20 0 10 -7 21 -15 25 -8 3 -15 1 -15 -4 0 -6 -6 -10 -14 -10 -10
0 -14 10 -11 34 2 25 -1 33 -10 30 -14 -6 -28 23 -19 38 4 6 -1 8 -15 3 -15
-4 -21 -2 -21 9 0 8 9 17 19 21 22 7 18 35 -4 35 -7 0 -15 7 -19 15 -3 9 -18
15 -36 15 -32 0 -41 16 -14 27 11 4 12 8 4 13 -15 9 -23 70 -9 70 6 0 6 6 -1
19 -11 22 -13 31 -5 31 3 0 28 -46 56 -102z m2404 32 c3 -5 2 -10 -4 -10 -5 0
-13 5 -16 10 -3 6 -2 10 4 10 5 0 13 -4 16 -10z m-185 -89 c0 -11 -161 -93
-169 -85 -6 6 2 11 94 60 66 35 75 38 75 25z m-298 -90 l-5 -44 29 7 c16 4 31
11 34 14 10 14 50 32 50 23 0 -13 -22 -29 -52 -36 -65 -16 -5 -22 193 -19 116
1 218 -1 228 -6 9 -5 33 -12 53 -15 39 -6 47 -19 46 -75 -1 -14 0 -125 1 -246
l1 -221 118 116 c64 64 144 137 177 163 54 43 131 114 193 180 12 13 22 32 22
41 0 10 6 20 14 23 8 3 12 12 9 20 -3 9 1 14 12 14 15 0 123 -105 350 -342
111 -115 241 -238 253 -238 6 0 70 58 144 130 73 71 134 130 136 130 1 0 2
-13 2 -29 0 -22 -14 -40 -67 -88 -306 -270 -632 -451 -988 -548 -101 -27 -280
-63 -340 -67 l-40 -3 -3 228 c-1 125 -5 227 -9 227 -3 0 -25 -19 -48 -43 -23
-23 -55 -53 -71 -67 -16 -13 0 6 35 42 36 37 63 69 60 72 -5 5 -272 15 -423
16 -91 0 -107 2 -102 15 3 8 0 14 -7 12 -8 -1 -12 33 -13 128 -1 72 -2 193 -3
270 -3 219 -1 302 8 280 4 -11 6 -40 3 -64z m-62 -177 c0 -8 -5 -12 -10 -9 -6
4 -8 11 -5 16 9 14 15 11 15 -7z m2338 -104 c-1 -25 -4 -29 -20 -25 -10 4 -25
-1 -34 -10 -29 -29 -27 -7 2 29 36 43 53 45 52 6z m-58 -81 c0 -16 -7 -29 -17
-34 -17 -6 -17 -7 0 -16 9 -6 17 -14 17 -19 0 -15 -40 -12 -41 3 0 10 -2 10
-6 0 -2 -7 -13 -13 -23 -13 -10 0 -20 -6 -23 -14 -4 -10 0 -12 14 -9 20 6 24
-4 10 -26 -5 -8 -15 -11 -23 -9 -8 3 -25 0 -39 -8 -13 -7 -18 -13 -11 -14 22
0 13 -30 -13 -42 -20 -9 -28 -8 -43 5 -18 16 -20 16 -37 -3 -21 -23 -28 -50
-14 -50 5 0 9 -6 9 -14 0 -10 -10 -14 -30 -14 -20 1 -38 -8 -54 -25 -14 -15
-33 -27 -43 -27 -25 0 -38 -12 -38 -35 0 -11 -7 -20 -15 -20 -23 0 -43 -24
-44 -53 -1 -26 -3 -27 -64 -28 -35 -1 -66 -4 -69 -7 -3 -4 -5 -18 -5 -32 0
-27 -31 -42 -68 -32 -26 7 -25 -4 0 -26 42 -36 16 -47 -52 -23 -32 11 -35 11
-31 -2 5 -12 0 -14 -30 -8 -31 6 -37 4 -37 -10 0 -10 -5 -14 -15 -10 -8 3 -15
1 -15 -3 0 -5 6 -11 13 -14 19 -7 1 -19 -31 -21 -16 -1 -36 -7 -44 -14 -9 -7
-27 -10 -47 -6 -25 5 -30 4 -26 -8 4 -9 -4 -19 -20 -26 -36 -16 -45 -15 -45 7
0 14 20 27 83 52 93 37 292 138 352 179 35 23 68 40 85 42 3 0 11 9 18 20 10
13 20 17 34 12 16 -5 20 -3 15 9 -4 10 4 22 21 33 42 27 262 216 317 273 43
44 51 49 58 34 5 -13 6 -11 3 7 -4 16 2 32 15 46 28 29 49 27 49 -7z m-169
-28 c-30 -30 -39 -26 -11 4 13 14 25 23 28 21 2 -2 -6 -14 -17 -25z m-3541
-92 c0 -5 -7 -9 -15 -9 -15 0 -20 12 -9 23 8 8 24 -1 24 -14z m142 -96 c31
-34 44 -45 157 -128 50 -37 88 -72 84 -78 -3 -5 -1 -7 5 -3 10 6 84 -31 90
-46 2 -4 8 -8 12 -8 5 0 33 -14 62 -32 29 -17 83 -46 121 -65 37 -18 67 -37
67 -43 0 -15 -17 -12 -36 7 -12 12 -31 17 -65 15 -38 -1 -49 2 -49 13 0 8 -8
15 -18 15 -11 0 -22 13 -30 33 -9 24 -15 29 -21 18 -5 -7 -14 -10 -20 -7 -6 4
-11 2 -11 -3 0 -6 -7 -11 -15 -11 -8 0 -15 4 -15 10 0 5 -7 7 -16 3 -13 -5
-15 -2 -9 15 4 13 2 22 -4 22 -6 0 -11 7 -11 16 0 13 -7 15 -31 10 -30 -6 -31
-5 -27 24 5 31 -4 44 -32 46 -8 1 -23 2 -32 3 -11 0 -18 9 -18 21 0 13 -5 17
-14 14 -9 -3 -17 3 -21 17 -5 16 -9 18 -15 9 -5 -8 -15 -10 -26 -5 -11 5 -24
7 -30 6 -6 0 -11 13 -12 30 -1 35 -10 49 -20 32 -5 -7 -13 -9 -21 -4 -7 5 -10
14 -7 20 4 6 2 11 -3 11 -6 0 -10 11 -9 25 3 32 9 31 40 -2z m3358 2 c0 -8 -7
-15 -15 -15 -16 0 -20 12 -8 23 11 12 23 8 23 -8z m10 -35 c0 -5 -7 -10 -15
-10 -8 0 -15 5 -15 10 0 6 7 10 15 10 8 0 15 -4 15 -10z m-2718 -381 c17 -9
18 -13 7 -20 -14 -9 -59 -13 -59 -5 0 2 3 11 6 20 7 19 18 20 46 5z m-72 -19
c0 -5 -9 -10 -20 -10 -11 0 -20 5 -20 10 0 6 9 10 20 10 11 0 20 -4 20 -10z
m165 -22 c7 -7 3 -9 -13 -5 -20 5 -21 3 -11 -10 10 -12 10 -16 -2 -24 -24 -15
-42 -11 -36 11 3 10 0 21 -6 23 -6 2 -7 9 -3 16 9 14 54 7 71 -11z m111 -37
c24 -10 42 -19 40 -22 -3 -3 7 -5 22 -4 16 0 26 -5 25 -12 -4 -17 14 -17 20 0
4 8 8 8 14 2 4 -5 14 -10 21 -11 38 -3 41 -5 35 -20 -4 -11 -13 -14 -31 -9
-16 4 -29 1 -34 -7 -8 -10 -11 -10 -15 -1 -2 7 -21 21 -41 30 -20 9 -41 23
-47 30 -16 20 -61 27 -68 10 -8 -21 -57 -10 -57 13 0 33 30 33 116 1z m1654
12 c0 -5 -7 -17 -16 -28 -11 -15 -17 -17 -23 -7 -6 10 -17 11 -54 1 -26 -6
-44 -15 -42 -20 8 -12 -17 -49 -34 -49 -8 0 -11 7 -8 20 6 22 -12 25 -48 10
-17 -7 -17 -9 -2 -9 9 -1 17 -5 17 -11 0 -5 -34 -8 -80 -7 -72 1 -95 7 -53 13
9 2 28 6 41 9 13 3 30 1 38 -6 12 -9 13 -9 9 3 -4 11 11 19 65 32 39 9 92 25
118 36 51 21 72 24 72 13z m-1433 -79 c-3 -3 -12 -4 -19 -1 -8 3 -5 6 6 6 11
1 17 -2 13 -5z m63 -14 c12 -8 12 -10 -5 -10 -11 0 -27 5 -35 10 -12 8 -12 10
5 10 11 0 27 -5 35 -10z m98 -21 c2 -5 15 -6 29 -3 17 5 24 3 20 -3 -4 -6 0
-13 8 -17 28 -10 17 -29 -12 -21 -16 4 -38 7 -50 7 -27 -2 -41 17 -22 29 10 6
4 9 -18 9 -18 0 -33 5 -33 10 0 13 73 2 78 -11z m882 11 c0 -5 -5 -10 -11 -10
-5 0 -7 5 -4 10 3 6 8 10 11 10 2 0 4 -4 4 -10z m-35 -10 c-3 -5 -1 -10 4 -10
6 0 11 -4 11 -10 0 -5 -6 -10 -14 -10 -8 0 -16 -7 -20 -15 -7 -19 -26 -19 -26
0 0 8 7 15 15 15 8 0 15 4 15 9 0 5 -28 7 -62 5 l-63 -3 60 13 c77 17 87 18
80 6z m-738 -16 c-3 -3 -12 -4 -19 -1 -8 3 -5 6 6 6 11 1 17 -2 13 -5z m68 -4
c17 -7 14 -9 -13 -9 -20 -1 -31 3 -27 9 7 12 13 12 40 0z m509 4 c9 -3 16 -13
16 -21 0 -11 -5 -13 -17 -8 -10 4 -29 10 -43 13 l-25 6 25 7 c14 4 26 7 27 8
1 1 8 -2 17 -5z m-379 -13 c40 -9 39 -9 -17 -10 -33 0 -58 3 -58 9 0 12 20 12
75 1z m275 0 c0 -11 -120 -19 -126 -9 -4 6 20 10 104 16 12 1 22 -2 22 -7z"/>
<path d="M1578 4373 c7 -3 16 -2 19 1 4 3 -2 6 -13 5 -11 0 -14 -3 -6 -6z"/>
<path d="M1668 4373 c18 -2 45 -2 60 0 15 2 0 4 -33 4 -33 0 -45 -2 -27 -4z"/>
<path d="M1345 4359 c-76 -7 -161 -22 -319 -53 -40 -8 -73 -21 -78 -29 -4 -9
-29 -26 -54 -38 -71 -36 -148 -112 -152 -151 -6 -50 -5 -99 1 -144 5 -31 0
-57 -18 -103 -13 -33 -19 -61 -14 -61 5 0 9 7 9 15 0 8 5 15 10 15 6 0 10 7
10 15 0 9 13 43 29 78 16 34 37 80 46 102 9 22 20 49 25 60 5 11 18 41 29 67
12 26 21 52 21 57 0 26 18 6 65 -70 28 -45 58 -93 68 -108 9 -14 20 -34 23
-43 7 -20 24 -24 24 -7 0 6 -12 32 -26 58 -24 43 -25 48 -12 80 l14 34 99
-124 c172 -211 169 -209 231 -209 l54 0 2 168 c2 92 3 204 3 250 0 57 4 82 12
82 6 0 15 -4 18 -10 3 -5 11 -10 17 -10 7 0 7 4 1 13 -15 19 -24 49 -13 42 6
-3 10 4 10 16 0 17 -3 19 -14 10 -10 -8 -16 -9 -21 -1 -3 5 -9 9 -13 9 -4 -1
-43 -5 -87 -10z"/>
<path d="M1290 3765 c0 -11 62 -66 68 -61 6 7 -47 66 -60 66 -4 0 -8 -2 -8 -5z"/>
<path d="M690 3745 c-7 -9 -8 -15 -2 -15 5 0 12 7 16 15 3 8 4 15 2 15 -2 0
-9 -7 -16 -15z"/>
<path d="M676 3705 c-9 -26 -7 -32 5 -12 6 10 9 21 6 23 -2 3 -7 -2 -11 -11z"/>
<path d="M659 3663 c-6 -32 -5 -52 1 -48 8 5 11 55 4 55 -2 0 -5 -3 -5 -7z"/>
<path d="M641 3525 c-6 -41 1 -100 15 -119 8 -11 14 -16 14 -10 0 5 -4 14 -9
20 -6 5 -12 36 -14 69 -2 33 -5 51 -6 40z"/>
<path d="M662 3250 c0 -14 2 -19 5 -12 2 6 2 18 0 25 -3 6 -5 1 -5 -13z"/>
<path d="M1880 3201 c0 -14 29 -22 56 -15 38 10 28 24 -16 24 -22 0 -40 -4
-40 -9z"/>
<path d="M1750 3172 c0 -4 17 -6 38 -4 58 5 62 10 10 11 -27 1 -48 -3 -48 -7z"/>
<path d="M706 3097 c3 -10 9 -15 12 -12 3 3 0 11 -7 18 -10 9 -11 8 -5 -6z"/>
<path d="M740 3016 c0 -8 4 -17 9 -20 5 -4 7 3 4 14 -6 23 -13 26 -13 6z"/>
<path d="M776 2947 c3 -10 9 -15 12 -12 3 3 0 11 -7 18 -10 9 -11 8 -5 -6z"/>
<path d="M401 3881 c-8 -5 -9 -11 -3 -15 5 -3 12 1 16 9 6 17 6 18 -13 6z"/>
<path d="M306 3703 c-6 -14 -5 -15 5 -6 7 7 10 15 7 18 -3 3 -9 -2 -12 -12z"/>
<path d="M4367 4311 c-4 -17 -3 -21 5 -13 5 5 8 16 6 23 -3 8 -7 3 -11 -10z"/>
<path d="M2299 673 c-13 -16 -12 -17 4 -4 9 7 17 15 17 17 0 8 -8 3 -21 -13z"/>
<path d="M3893 603 c9 -2 23 -2 30 0 6 3 -1 5 -18 5 -16 0 -22 -2 -12 -5z"/>
<path d="M4430 885 c-8 -9 -8 -15 -2 -15 12 0 26 19 19 26 -2 2 -10 -2 -17
-11z"/>
</g>
</svg>
