<?xml version="1.0" standalone="no"?>
<!DOCTYPE svg PUBLIC "-//W3C//DTD SVG 20010904//EN"
 "http://www.w3.org/TR/2001/REC-SVG-20010904/DTD/svg10.dtd">
<svg version="1.0" xmlns="http://www.w3.org/2000/svg"
 width="512.000000pt" height="512.000000pt" viewBox="0 0 512.000000 512.000000"
 preserveAspectRatio="xMidYMid meet">

<g transform="translate(0.000000,512.000000) scale(0.100000,-0.100000)"
fill="#000000" stroke="none">
<path d="M0 2560 l0 -2560 2560 0 2560 0 0 2560 0 2560 -2560 0 -2560 0 0
-2560z m2900 2500 c0 -5 -4 -10 -10 -10 -5 0 -10 5 -10 10 0 6 5 10 10 10 6 0
10 -4 10 -10z m-730 -10 c0 -5 8 -10 18 -10 16 -1 16 -1 -1 -11 -9 -5 -22 -7
-27 -4 -13 8 -13 35 0 35 6 0 10 -4 10 -10z m263 3 c-13 -2 -35 -2 -50 0 -16
2 -5 4 22 4 28 0 40 -2 28 -4z m270 0 c-13 -2 -33 -2 -45 0 -13 2 -3 4 22 4
25 0 35 -2 23 -4z m227 -13 c0 -22 -1 -23 -24 -14 -12 5 -13 9 -3 20 17 19 27
17 27 -6z m-617 3 c-7 -2 -21 -2 -30 0 -10 3 -4 5 12 5 17 0 24 -2 18 -5z
m490 0 c-7 -2 -21 -2 -30 0 -10 3 -4 5 12 5 17 0 24 -2 18 -5z m185 -5 c-3 -7
-13 -15 -23 -16 -15 -4 -16 -2 -4 12 17 19 32 21 27 4z m-751 -4 c-3 -3 -12
-4 -19 -1 -8 3 -5 6 6 6 11 1 17 -2 13 -5z m-107 -8 c0 -3 -4 -8 -10 -11 -5
-3 -10 -1 -10 4 0 6 5 11 10 11 6 0 10 -2 10 -4z m-43 -12 c-3 -3 -12 -4 -19
-1 -8 3 -5 6 6 6 11 1 17 -2 13 -5z m-227 -16 c0 -9 4 -8 10 2 6 9 13 11 18 5
9 -12 44 -16 36 -4 -3 5 0 9 6 9 6 0 10 -7 8 -17 -3 -16 -21 -23 -70 -26 -14
-1 -24 -6 -21 -11 4 -5 -4 -7 -15 -4 -14 4 -20 2 -15 -5 4 -6 0 -8 -10 -4 -10
3 -17 2 -17 -3 0 -6 -4 -10 -10 -10 -23 0 -7 28 25 43 19 9 35 21 35 27 0 5 5
10 10 10 6 0 10 -6 10 -12z m187 6 c-3 -3 -12 -4 -19 -1 -8 3 -5 6 6 6 11 1
17 -2 13 -5z m1073 -6 c0 -10 2 -10 8 -1 10 16 74 14 68 -3 -5 -14 20 -27 35
-18 5 3 6 10 3 16 -5 7 -1 9 9 5 9 -3 18 -1 20 6 2 7 7 9 11 6 4 -3 2 -18 -3
-32 -9 -23 -14 -26 -43 -20 -18 3 -38 10 -44 14 -6 5 -13 7 -15 5 -2 -3 -33 4
-69 14 l-65 19 43 0 c27 1 42 -3 42 -11z m-1145 -8 c-3 -5 -10 -10 -16 -10 -5
0 -9 5 -9 10 0 6 7 10 16 10 8 0 12 -4 9 -10z m705 -14 c438 -13 861 -158
1260 -432 47 -32 90 -63 95 -69 6 -6 32 -28 59 -50 100 -79 261 -243 360 -365
199 -247 368 -588 446 -899 27 -106 67 -348 71 -426 14 -280 -13 -580 -71
-795 -7 -25 -11 -45 -10 -45 7 0 -103 -292 -141 -374 -56 -120 -47 -121 -119
14 -23 44 -60 112 -81 150 -21 39 -61 124 -89 190 -29 66 -64 147 -80 180 -15
33 -36 78 -46 100 -56 129 -124 263 -144 283 -12 13 -71 83 -132 155 -109 131
-178 202 -251 257 -21 16 -66 53 -99 82 -33 29 -72 60 -85 69 -13 9 -32 27
-41 40 -9 13 -48 60 -87 105 -151 173 -171 198 -205 258 -30 54 -44 75 -87
131 -79 102 -200 230 -248 260 -36 24 -199 157 -203 168 -2 4 -9 7 -16 7 -10
0 -49 33 -83 72 -22 24 -38 34 -53 31 -8 -2 -44 16 -80 39 -36 24 -96 59 -133
78 -38 19 -73 41 -79 47 -6 7 -24 13 -40 13 -17 0 -60 15 -97 34 -36 19 -113
46 -171 61 -146 37 -155 38 -173 20 -20 -19 -31 -19 -47 0 -7 9 -15 13 -18 10
-6 -6 37 -43 66 -55 12 -5 27 -21 34 -35 15 -33 25 -32 33 5 7 33 16 37 35 15
7 -8 9 -15 5 -15 -4 0 2 -15 12 -33 11 -18 23 -46 27 -62 4 -16 11 -32 14 -35
11 -8 53 -102 43 -96 -5 3 -14 -1 -21 -9 -10 -12 -10 -21 -1 -41 6 -14 15 -24
20 -22 11 4 116 136 155 195 32 47 48 47 73 -1 8 -17 39 -62 68 -101 29 -38
74 -103 101 -144 27 -40 53 -79 59 -87 10 -15 4 -24 -18 -28 -8 -1 -21 -7 -29
-13 -19 -16 -194 -33 -335 -33 l-115 0 153 -103 c223 -148 240 -162 226 -176
-8 -8 -6 -24 7 -63 11 -29 22 -57 26 -63 3 -5 15 -32 24 -60 10 -27 24 -63 31
-80 8 -16 15 -43 17 -59 3 -28 -8 -37 -242 -193 l-245 -164 -5 120 c-3 71 -9
121 -15 121 -5 0 -11 -18 -13 -41 l-3 -42 -95 94 c-52 51 -94 87 -94 79 0 -11
-3 -11 -12 -2 -7 7 -35 12 -64 12 l-51 0 -7 93 c-12 148 -13 188 -4 193 4 3
-18 28 -50 56 -31 29 -65 62 -75 75 -10 13 -25 23 -33 23 -8 0 -17 7 -21 16
-8 21 -139 154 -152 154 -6 0 -8 6 -5 14 6 17 -12 31 -21 16 -4 -6 -11 -8 -16
-4 -6 4 -6 11 2 20 6 8 8 15 3 15 -5 1 -13 2 -19 4 -5 1 -16 3 -24 3 -8 1 -11
10 -8 23 4 15 2 19 -8 15 -9 -3 -33 14 -59 41 l-45 46 -3 -218 c-3 -190 -1
-222 15 -256 9 -21 22 -41 27 -44 6 -3 10 -14 10 -23 -1 -14 -4 -13 -19 6 -38
44 -41 30 -42 -180 0 -112 -4 -237 -8 -278 -4 -41 -4 -80 1 -86 5 -7 4 -22 -1
-37 -5 -14 -7 -27 -4 -31 11 -11 -8 -156 -21 -156 -21 0 -133 115 -191 195
-12 16 -14 17 -15 4 0 -22 27 -55 112 -136 39 -37 90 -86 112 -109 23 -23 52
-45 66 -49 14 -4 27 -10 30 -14 20 -25 105 -60 129 -54 31 8 25 30 -14 55 -19
13 -35 28 -35 34 0 6 -6 17 -14 23 -8 7 -21 26 -30 44 -9 18 -20 39 -25 47
-29 51 -34 70 -23 94 11 24 13 24 109 20 142 -7 340 -20 325 -22 -10 -2 -10
-7 -2 -22 9 -17 21 -20 83 -20 l73 0 15 -37 c8 -20 13 -39 12 -42 -1 -4 -4
-13 -8 -23 -4 -11 -1 -17 10 -20 22 -4 58 -94 81 -200 17 -83 39 -136 96 -238
31 -56 50 -115 50 -160 0 -25 -22 -141 -43 -230 -6 -25 -12 -65 -14 -90 -2
-25 -10 -88 -18 -140 -9 -52 -21 -142 -27 -199 -15 -137 -16 -500 -1 -576 30
-154 59 -263 129 -475 57 -175 55 -159 19 -149 -16 5 -47 11 -68 14 -42 6
-241 70 -329 105 -60 24 -262 121 -270 130 -3 3 -18 11 -34 18 -27 12 -215
135 -254 166 -344 278 -547 523 -721 872 -84 170 -126 284 -176 483 -73 289
-92 589 -56 885 11 92 25 174 31 181 5 6 8 14 5 17 -13 13 70 302 122 423 52
123 133 282 180 355 132 207 293 407 316 393 5 -3 7 -1 4 4 -6 9 72 92 143
153 14 12 41 36 60 53 70 64 210 162 343 240 292 173 698 296 1029 313 62 4
114 7 116 9 2 2 11 1 20 -1 9 -2 91 -5 182 -8z m-994 -51 c0 -14 -7 -27 -14
-30 -7 -3 -11 -1 -8 4 3 5 -1 11 -9 15 -8 3 -15 10 -15 17 0 6 7 9 15 5 8 -3
15 -1 15 4 0 6 4 10 9 10 5 0 8 -11 7 -25z m1651 8 c3 -7 -3 -9 -17 -6 -29 8
-37 25 -9 21 12 -1 24 -8 26 -15z m103 3 c0 -8 7 -16 15 -20 16 -6 21 -36 6
-36 -5 0 -33 11 -62 24 -45 21 -49 25 -27 25 14 1 29 -5 31 -11 4 -8 8 -4 12
10 8 24 25 30 25 8z m-1680 -6 c0 -5 -6 -10 -14 -10 -8 0 -23 -3 -33 -6 -16
-6 -16 -5 2 9 23 19 45 22 45 7z m-167 -42 c4 -10 7 -10 18 0 16 14 39 16 39
2 0 -5 -7 -10 -15 -10 -17 0 -71 -24 -198 -88 -49 -24 -91 -41 -94 -39 -2 3
-13 -3 -23 -13 -10 -10 -51 -37 -91 -61 -41 -24 -75 -47 -77 -51 -2 -5 -10 -8
-17 -8 -7 0 -15 -3 -17 -8 -5 -12 -148 -113 -149 -105 0 5 -3 1 -7 -7 -7 -16
-95 -100 -104 -100 -6 0 -145 -142 -182 -185 -14 -16 -26 -25 -26 -18 0 6 5
15 11 18 6 4 8 13 5 21 -3 8 -1 14 4 14 6 0 10 6 10 14 0 8 14 19 31 25 25 9
29 14 24 32 -6 17 -4 21 8 16 24 -9 50 17 50 52 0 17 4 31 9 31 4 0 8 -5 8
-11 0 -8 4 -8 14 0 8 6 20 10 27 9 15 -3 15 3 4 40 -6 19 -3 22 24 22 17 0 31
-5 31 -11 0 -8 4 -8 14 1 8 6 12 18 9 26 -3 8 0 14 7 14 6 0 8 5 5 10 -4 6
-11 8 -16 5 -5 -4 -9 0 -9 8 0 21 33 16 46 -7 11 -19 12 -19 23 3 7 12 16 19
21 16 6 -3 7 1 4 9 -4 11 0 16 10 16 9 0 16 7 16 15 0 8 8 16 18 17 9 0 22 2
27 2 23 3 31 17 27 46 -2 18 0 30 7 30 6 0 11 -6 11 -12 0 -10 3 -9 9 1 5 8
16 11 28 7 18 -6 20 -2 17 29 -2 30 1 36 23 41 18 5 28 2 35 -10 12 -21 38
-21 38 0 0 11 6 15 20 11 11 -3 17 -1 14 4 -19 32 34 70 91 66 18 -2 37 4 48
15 14 15 14 18 2 18 -8 0 -15 5 -15 10 0 14 23 12 39 -2 11 -10 14 -10 18 -1
3 8 14 11 28 7 17 -4 27 0 37 15 15 24 24 27 31 9z m1916 -17 c9 -6 22 -5 34
2 15 9 21 9 24 0 4 -10 10 -10 25 -2 16 8 23 8 29 -2 12 -19 11 -29 -2 -29 -5
0 -7 -5 -4 -10 4 -7 13 -6 26 1 24 12 40 2 19 -11 -11 -7 -11 -10 -2 -11 6 -1
17 -2 24 -3 15 -1 23 -26 8 -26 -7 0 -38 13 -69 28 -31 16 -76 38 -101 50 -25
11 -40 21 -35 21 6 0 16 -3 24 -8z m297 -67 c-3 -9 -6 -18 -6 -20 0 -2 -10 -5
-22 -5 -16 -1 -18 -3 -7 -6 9 -2 19 -15 22 -29 5 -27 3 -28 -25 -13 -17 9 -18
13 -7 21 10 7 9 8 -6 4 -24 -7 -50 8 -41 23 10 15 29 14 21 -1 -4 -7 0 -5 8 5
8 9 22 17 31 17 9 0 16 5 16 10 0 6 5 10 11 10 6 0 8 -7 5 -16z m55 -64 c6 0
9 -6 8 -12 -6 -45 30 -76 64 -56 24 13 60 6 63 -12 7 -47 22 -70 40 -63 16 6
26 -11 18 -30 -5 -13 -12 -11 -44 11 -34 23 -39 31 -36 59 2 18 -1 30 -5 27
-5 -3 -9 -14 -9 -25 0 -12 -5 -19 -12 -16 -7 2 -11 11 -10 18 2 8 1 11 -3 7
-5 -5 -94 36 -123 58 -2 1 -1 12 3 24 4 14 12 19 22 16 8 -3 19 -6 24 -6z
m269 -210 c14 -22 12 -30 -7 -30 -10 0 -28 10 -39 23 l-21 22 29 0 c16 0 33
-7 38 -15z m36 -67 c-7 -7 -26 7 -26 19 0 6 6 6 15 -2 9 -7 13 -15 11 -17z
m54 16 c0 -5 -4 -9 -10 -9 -12 0 -2 -29 18 -52 8 -10 11 -18 5 -18 -14 0 -50
41 -57 66 -5 18 -2 22 19 22 14 0 25 -4 25 -9z m40 -19 c0 -5 -4 -10 -10 -10
-5 0 -10 5 -10 10 0 6 5 10 10 10 6 0 10 -4 10 -10z m-10 -30 c0 -5 -4 -10
-10 -10 -5 0 -10 5 -10 10 0 6 5 10 10 10 6 0 10 -4 10 -10z m59 -19 c8 -5 12
-18 8 -30 -3 -14 0 -21 9 -22 8 -1 19 -3 24 -4 6 -1 17 -3 25 -4 8 0 18 -13
21 -28 10 -42 24 -56 41 -42 7 7 17 9 21 5 4 -4 -4 -15 -16 -25 -15 -11 -21
-23 -16 -34 5 -14 9 -15 20 -6 18 14 18 2 1 -15 -11 -11 -30 5 -106 86 -88 93
-92 100 -75 113 22 17 25 17 43 6z m-3665 -210 c-3 -14 -15 -37 -25 -51 -110
-145 -159 -211 -179 -245 -13 -22 -28 -41 -32 -43 -4 -2 -8 -10 -8 -18 0 -9
-5 -12 -12 -8 -7 4 -8 3 -4 -4 9 -14 -47 -105 -59 -95 -4 5 -5 3 -2 -4 4 -6
-12 -51 -34 -100 -34 -73 -43 -85 -49 -68 -7 17 -9 17 -9 3 -1 -23 -31 -12
-31 12 0 17 31 60 44 60 3 0 6 -7 6 -16 0 -12 5 -10 19 7 12 15 15 26 9 30
-13 8 -2 59 13 59 6 0 8 -7 5 -16 -3 -9 -2 -12 5 -9 5 4 7 14 5 23 -7 23 9 47
24 37 9 -5 10 -2 6 13 -4 13 -1 22 9 25 12 5 13 11 3 32 -13 28 -3 47 13 25 9
-12 10 -11 5 4 -4 12 1 25 15 37 11 10 18 23 14 29 -10 15 22 42 46 38 19 -3
22 3 26 37 2 22 8 42 14 46 5 3 7 13 4 22 -7 17 24 39 47 34 7 -2 10 -2 6 0
-12 7 -10 33 2 33 6 0 10 -4 10 -10 0 -5 8 -2 19 9 10 10 25 21 32 24 9 4 10
8 4 14 -6 4 -11 20 -11 34 -1 22 3 26 27 26 26 0 28 -3 23 -26z m3832 -36 c4
-10 13 -13 25 -10 16 5 19 1 19 -24 0 -17 -3 -31 -7 -31 -8 0 -63 65 -63 74 0
13 21 5 26 -9z m104 -80 c5 3 10 1 10 -4 0 -6 -6 -11 -12 -12 -10 0 -10 -2 0
-6 6 -2 10 -9 7 -14 -9 -14 34 -91 47 -83 9 6 9 9 0 12 -13 4 -17 42 -4 42 29
-1 38 -41 16 -73 -11 -17 -16 -13 -53 41 -22 33 -38 62 -35 65 3 3 -4 11 -16
17 -18 9 -20 14 -9 21 7 4 19 3 26 -2 7 -6 17 -8 23 -4z m123 -199 c17 6 22
-4 17 -36 -4 -35 -19 -28 -50 22 -29 47 -30 50 -8 30 15 -14 31 -20 41 -16z
m55 -100 c6 10 14 15 18 11 4 -4 2 -13 -4 -19 -17 -17 -15 -28 3 -22 8 4 15 1
15 -5 0 -6 -4 -11 -9 -11 -17 0 -6 -35 14 -46 11 -5 20 -19 19 -31 0 -13 4
-19 13 -16 15 6 18 -13 3 -22 -13 -8 -1 -35 17 -35 11 0 14 -7 11 -25 -5 -25
5 -34 17 -15 8 13 35 13 35 1 0 -5 -9 -12 -19 -16 -13 -4 -17 -12 -14 -25 8
-31 -13 -23 -27 10 -7 16 -13 33 -13 37 -1 4 -30 62 -64 127 -66 124 -75 148
-44 107 18 -23 19 -23 29 -5z m94 -101 c0 -5 -5 -11 -11 -13 -6 -2 -11 4 -11
13 0 9 5 15 11 13 6 -2 11 -8 11 -13z m8 -65 c0 -5 -4 -10 -10 -10 -5 0 -10 5
-10 10 0 6 5 10 10 10 6 0 10 -4 10 -10z m-4640 -80 c0 -5 -4 -10 -10 -10 -5
0 -10 5 -10 10 0 6 5 10 10 10 6 0 10 -4 10 -10z m950 0 c0 -5 -16 -10 -35
-10 -19 0 -35 5 -35 10 0 6 16 10 35 10 19 0 35 -4 35 -10z m153 -17 c-7 -2
-21 -2 -30 0 -10 3 -4 5 12 5 17 0 24 -2 18 -5z m-1096 -30 c-8 -16 -22 -51
-31 -79 -15 -46 -19 -51 -41 -46 -31 6 -33 22 -2 23 12 0 16 3 10 6 -7 2 -13
9 -13 15 0 6 8 7 17 4 10 -4 14 -4 10 0 -4 4 1 13 10 19 11 8 17 26 17 49 0
28 4 36 18 36 17 0 17 -2 5 -27z m4683 -15 c0 -39 -14 -66 -24 -49 -4 6 -4 21
-1 32 5 15 4 19 -5 14 -8 -5 -7 0 2 14 18 30 28 26 28 -11z m-3393 16 c-3 -3
-12 -4 -19 -1 -8 3 -5 6 6 6 11 1 17 -2 13 -5z m56 -61 c-13 -2 -35 -2 -50 0
-16 2 -5 4 22 4 28 0 40 -2 28 -4z m3337 -38 c0 -8 7 -15 15 -15 8 0 15 -9 15
-19 0 -36 -17 -31 -33 9 -8 22 -11 40 -6 40 5 0 9 -7 9 -15z m60 -35 c0 -5 -4
-10 -10 -10 -5 0 -10 5 -10 10 0 6 5 10 10 10 6 0 10 -4 10 -10z m-4806 -37
c-10 -41 -21 -48 -26 -18 -4 17 0 29 11 35 22 13 22 13 15 -17z m4806 -3 c0
-5 -4 -10 -10 -10 -5 0 -10 5 -10 10 0 6 5 10 10 10 6 0 10 -4 10 -10z m-24
-25 c10 -40 -1 -50 -13 -11 -6 20 -7 36 -2 36 5 0 11 -11 15 -25z m-4796 -35
c0 -5 -4 -10 -10 -10 -5 0 -10 5 -10 10 0 6 5 10 10 10 6 0 10 -4 10 -10z
m4840 1 c0 -12 -31 -43 -37 -37 -6 6 20 46 29 46 5 0 8 -4 8 -9z m-4850 -31
c0 -5 -4 -10 -10 -10 -5 0 -10 5 -10 10 0 6 5 10 10 10 6 0 10 -4 10 -10z
m4850 -30 c0 -5 -7 -10 -15 -10 -8 0 -15 5 -15 10 0 6 7 10 15 10 8 0 15 -4
15 -10z m-4879 -61 c-5 -13 -10 -18 -10 -11 -1 7 -5 10 -11 7 -5 -3 -10 1 -10
9 0 10 6 13 15 10 10 -4 15 0 16 12 0 11 3 14 5 8 3 -6 0 -22 -5 -35z m4866
19 c-3 -8 -6 -5 -6 6 -1 11 2 17 5 13 3 -3 4 -12 1 -19z m13 -28 c0 -5 -2 -10
-4 -10 -3 0 -8 5 -11 10 -3 6 -1 10 4 10 6 0 11 -4 11 -10z m-3785 -10 c3 -5
1 -10 -4 -10 -6 0 -11 5 -11 10 0 6 2 10 4 10 3 0 8 -4 11 -10z m-1104 -29
c-6 -10 -9 -20 -7 -22 3 -2 -2 -29 -10 -59 l-14 -55 5 55 c3 30 5 65 5 78 0
13 6 22 15 22 12 0 13 -4 6 -19z m4905 3 c-3 -9 -6 -23 -6 -31 0 -22 -6 -14
-14 20 -5 21 -3 27 10 27 11 0 14 -5 10 -16z m38 -10 c9 -22 8 -24 -9 -24 -8
0 -15 9 -15 20 0 24 15 27 24 4z m-24 -64 c0 -5 -4 -10 -10 -10 -5 0 -10 5
-10 10 0 6 5 10 10 10 6 0 10 -4 10 -10z m-3 -52 c-3 -8 -6 -5 -6 6 -1 11 2
17 5 13 3 -3 4 -12 1 -19z m-4977 2 c0 -5 -4 -10 -10 -10 -5 0 -10 5 -10 10 0
6 5 10 10 10 6 0 10 -4 10 -10z m-10 -35 c0 -8 -4 -15 -10 -15 -5 0 -10 7 -10
15 0 8 5 15 10 15 6 0 10 -7 10 -15z m31 -28 c-16 -16 -25 -1 -10 16 8 8 16
11 18 5 2 -5 -2 -15 -8 -21z m4978 -12 c0 -5 -4 -3 -9 5 -5 8 -9 22 -9 30 0
16 17 -16 18 -35z m-4979 -25 c0 -11 -4 -20 -9 -20 -6 0 -9 9 -8 20 1 11 5 20
9 20 4 0 8 -9 8 -20z m4980 -42 c0 -28 -2 -49 -4 -47 -8 9 -13 99 -5 99 5 0 9
-23 9 -52z m-5010 22 c0 -5 -4 -10 -10 -10 -5 0 -10 5 -10 10 0 6 5 10 10 10
6 0 10 -4 10 -10z m30 -42 c0 -7 -5 -20 -10 -28 -8 -12 -10 -9 -10 13 0 15 5
27 10 27 6 0 10 -6 10 -12z m-11 -120 c0 -18 -4 -42 -9 -53 -6 -15 -9 -6 -9
33 -1 28 4 52 9 52 6 0 10 -15 9 -32z m4998 -30 c-2 -13 -4 -3 -4 22 0 25 2
35 4 23 2 -13 2 -33 0 -45z m-4998 -256 c1 -31 -3 -42 -11 -39 -7 2 -13 9 -12
15 1 7 2 36 3 65 3 42 5 47 11 27 4 -14 8 -44 9 -68z m4998 -9 c-2 -16 -4 -3
-4 27 0 30 2 43 4 28 2 -16 2 -40 0 -55z m-5017 -63 c0 -5 -4 -10 -10 -10 -5
0 -10 5 -10 10 0 6 5 10 10 10 6 0 10 -4 10 -10z m29 -32 c1 -5 -3 -8 -9 -8
-5 0 -10 12 -9 28 0 24 1 25 9 7 5 -11 9 -23 9 -27z m4978 0 c-3 -7 -5 -2 -5
12 0 14 2 19 5 13 2 -7 2 -19 0 -25z m-1 -76 c-12 -11 -17 7 -9 34 l8 29 3
-28 c2 -16 1 -31 -2 -35z m-4976 18 c1 -8 3 -32 6 -52 3 -22 1 -38 -4 -38 -6
0 -8 9 -5 20 3 11 1 20 -5 20 -6 0 -9 11 -7 25 2 19 -2 25 -16 25 -11 0 -19 4
-19 9 0 16 50 7 50 -9z m4973 -58 c-3 -12 -9 -19 -14 -16 -5 3 -3 14 3 24 15
24 19 21 11 -8z m-4993 -52 c0 -5 -4 -10 -10 -10 -5 0 -10 5 -10 10 0 6 5 10
10 10 6 0 10 -4 10 -10z m37 -12 c-3 -8 -6 -5 -6 6 -1 11 2 17 5 13 3 -3 4
-12 1 -19z m4940 0 c-3 -8 -6 -5 -6 6 -1 11 2 17 5 13 3 -3 4 -12 1 -19z m3
-39 c0 -5 -4 -9 -10 -9 -5 0 -10 7 -10 16 0 8 5 12 10 9 6 -3 10 -10 10 -16z
m-4928 -14 c3 -14 1 -28 -3 -31 -5 -3 -9 1 -9 10 0 8 -3 21 -6 30 -3 9 -2 16
4 16 5 0 12 -11 14 -25z m4912 -47 c5 -22 3 -28 -10 -28 -11 0 -14 5 -10 16 3
9 6 23 6 31 0 22 6 14 14 -19z m-4894 -19 c0 -5 -7 -9 -15 -9 -15 0 -20 12 -9
23 8 8 24 -1 24 -14z m4880 -29 c0 -5 -5 -10 -11 -10 -5 0 -7 5 -4 10 3 6 8
10 11 10 2 0 4 -4 4 -10z m-4870 -35 c0 -8 -7 -15 -15 -15 -26 0 -18 20 13 29
1 1 2 -6 2 -14z m24 -94 c-7 -8 -14 6 -19 40 l-5 34 14 -35 c7 -19 12 -37 10
-39z m4834 22 c11 -21 5 -43 -10 -43 -6 0 -8 7 -5 15 4 8 2 17 -3 20 -6 4 -10
10 -10 16 0 15 19 10 28 -8z m-17 -63 c5 0 9 -4 9 -10 0 -5 -11 -10 -24 -10
-23 0 -24 1 -13 38 11 35 12 36 15 10 2 -16 8 -28 13 -28z m-4776 -75 c57
-160 56 -153 34 -148 -13 4 -17 12 -14 27 3 11 -4 39 -14 61 -11 23 -20 32
-20 23 -1 -25 -21 -23 -21 2 0 11 -4 20 -10 20 -5 0 -10 5 -10 10 0 6 6 10 14
10 8 0 18 4 21 10 4 6 -1 7 -11 3 -13 -5 -16 -3 -11 10 3 9 2 17 -3 17 -11 0
-14 43 -3 53 9 10 9 11 48 -98z m4756 36 c6 11 11 11 20 2 15 -15 3 -33 -23
-33 -11 0 -22 -8 -25 -20 -3 -11 -9 -20 -14 -20 -5 0 -2 16 6 36 8 20 15 39
16 43 0 3 3 0 6 -8 5 -11 7 -11 14 0z m-37 -97 c9 -24 7 -64 -3 -64 -5 0 -12
6 -14 13 -3 6 -6 2 -6 -9 -1 -12 6 -27 14 -34 8 -7 15 -16 15 -21 0 -5 -7 -9
-15 -9 -8 0 -15 5 -15 10 0 6 -7 10 -16 10 -10 0 -14 -7 -12 -22 2 -14 -2 -22
-9 -20 -7 1 -13 -5 -13 -14 0 -8 4 -13 9 -9 17 10 20 -10 5 -30 -13 -17 -16
-18 -24 -5 -7 11 -9 7 -7 -15 1 -22 -4 -32 -20 -40 -13 -5 -23 -19 -23 -30 0
-11 -9 -28 -20 -38 -12 -10 -17 -23 -13 -33 4 -11 3 -15 -5 -10 -16 10 -23 -9
-13 -36 12 -32 3 -44 -31 -43 -32 0 -36 9 -10 24 9 6 13 11 9 11 -5 0 0 12 11
28 25 36 123 232 152 304 13 31 26 55 30 53 4 -2 5 7 2 20 -5 27 12 34 22 9z
m-4609 -206 c27 -57 60 -118 73 -137 12 -19 20 -41 17 -48 -3 -9 0 -11 7 -7 7
5 9 0 6 -14 -4 -15 -2 -19 8 -15 8 3 14 0 14 -6 0 -6 0 -14 0 -18 0 -14 -34
-9 -50 6 -11 11 -12 15 -2 19 7 2 10 8 7 12 -3 5 -12 7 -20 3 -20 -7 -19 7 2
22 16 12 15 15 -11 42 -20 22 -35 29 -52 25 -14 -2 -24 0 -24 7 0 6 7 11 15
11 17 0 20 17 4 22 -14 5 -21 58 -8 58 5 0 2 15 -8 33 -13 24 -18 28 -21 15
-4 -20 -11 -22 -31 -9 -7 5 -10 14 -7 20 4 6 2 11 -3 11 -27 0 1 48 29 50 3 0
28 -46 55 -102z m2440 -28 c3 -5 1 -10 -4 -10 -6 0 -11 5 -11 10 0 6 2 10 4
10 3 0 8 -4 11 -10z m2115 -10 c0 -5 -4 -10 -10 -10 -5 0 -10 5 -10 10 0 6 5
10 10 10 6 0 10 -4 10 -10z m-2319 -94 c-7 -8 -26 -18 -42 -21 -16 -4 -29 -11
-29 -16 0 -5 -6 -9 -12 -9 -7 0 -25 -7 -40 -14 -16 -8 -28 -11 -28 -7 0 9 152
90 159 85 2 -2 -2 -10 -8 -18z m-284 -43 c-3 -10 -5 -4 -5 12 0 17 2 24 5 18
2 -7 2 -21 0 -30z m97 -48 c-22 -17 -34 -19 -34 -6 0 5 8 12 18 14 32 9 36 7
16 -8z m160 -40 c113 2 208 0 211 -4 2 -5 27 -11 55 -15 l50 -7 0 -274 0 -274
68 72 c67 72 154 153 247 230 75 62 195 186 195 201 0 7 7 19 15 26 8 7 12 16
9 21 -3 5 6 9 20 9 18 0 42 -18 83 -61 32 -34 74 -76 93 -93 19 -17 53 -51 75
-76 66 -75 338 -340 348 -340 12 0 79 63 188 175 48 50 90 87 94 83 19 -19
-13 -64 -102 -143 -338 -297 -732 -489 -1173 -569 -47 -9 -102 -16 -122 -16
l-38 0 -2 222 c-2 125 -7 222 -12 220 -5 -2 -12 1 -15 7 -5 7 -102 13 -271 17
-146 4 -267 9 -270 11 -6 5 -17 572 -12 590 3 10 11 9 32 -2 23 -12 67 -14
234 -10z m-2054 -10 c14 -17 5 -36 -15 -28 -8 3 -15 0 -15 -6 0 -19 -17 -12
-23 9 -3 12 1 24 11 30 23 13 28 12 42 -5z m4203 4 c-6 -6 -9 -18 -6 -25 3 -8
0 -14 -6 -14 -6 0 -11 -4 -11 -10 0 -5 7 -7 16 -3 12 4 15 2 12 -8 -3 -8 -16
-14 -29 -14 -28 0 -53 -29 -45 -52 4 -9 -2 -23 -15 -34 -21 -18 -49 -26 -49
-13 0 13 83 109 92 106 5 -1 7 2 3 8 -7 12 25 70 39 70 6 0 5 -5 -1 -11z
m-4169 -55 c9 -22 8 -26 -6 -22 -13 5 -20 38 -8 38 4 0 11 -7 14 -16z m62 -88
c21 -25 4 -40 -35 -31 -22 5 -31 12 -30 23 1 10 -2 25 -6 36 -13 30 16 40 38
13 10 -12 25 -30 33 -41z m4094 44 c0 -5 -7 -10 -15 -10 -8 0 -15 5 -15 10 0
6 7 10 15 10 8 0 15 -4 15 -10z m-4014 -142 c60 -75 224 -251 224 -242 0 3 28
-19 63 -48 82 -71 186 -152 215 -167 12 -7 20 -16 17 -21 -3 -6 1 -7 9 -4 9 3
16 1 16 -4 0 -6 6 -12 13 -14 32 -8 195 -113 190 -121 -4 -6 1 -8 11 -4 18 7
106 -37 106 -54 0 -4 -7 -6 -15 -3 -8 4 -15 10 -15 15 0 5 -9 9 -20 9 -11 0
-20 6 -20 13 0 9 -2 9 -8 0 -9 -14 -65 -10 -70 6 -2 6 -10 11 -18 11 -8 0 -14
6 -14 13 0 6 -9 23 -20 37 -17 21 -20 22 -20 6 0 -12 -5 -16 -15 -12 -8 3 -15
1 -15 -4 0 -6 -5 -10 -10 -10 -6 0 -8 11 -4 25 5 22 3 25 -20 25 -27 0 -35 15
-13 23 6 3 1 6 -13 7 -32 3 -31 3 -54 -6 -16 -6 -18 -3 -14 25 4 30 -9 54 -28
50 -28 -5 -44 3 -44 21 0 12 -5 17 -14 14 -7 -3 -16 2 -19 10 -4 9 -14 12 -25
9 -11 -2 -23 0 -26 6 -4 5 -14 7 -22 4 -10 -4 -15 -1 -14 8 1 8 2 24 1 37 -1
19 -5 21 -27 16 -23 -6 -25 -4 -19 15 4 12 2 21 -4 21 -6 0 -10 5 -9 12 2 8
-9 11 -34 9 -36 -2 -36 -2 -34 35 3 28 -1 38 -14 41 -10 3 -23 16 -29 29 -6
14 -19 24 -31 24 -11 0 -20 5 -20 11 0 8 -5 7 -15 -1 -21 -18 -32 -4 -17 21
10 16 10 22 0 33 -7 7 -19 11 -26 8 -6 -2 -12 2 -12 8 0 10 -4 9 -15 0 -9 -7
-19 -10 -23 -6 -4 4 1 14 12 21 21 16 15 45 -9 45 -8 0 -15 5 -15 11 0 7 -10
5 -25 -5 -14 -9 -25 -12 -25 -6 0 5 4 10 9 10 5 0 11 7 14 14 4 10 1 13 -9 9
-20 -7 -18 7 4 23 9 7 18 14 18 14 1 0 28 -32 60 -72z m3884 32 c-9 -5 -9 -9
-1 -14 18 -12 12 -28 -8 -21 -24 7 -46 -20 -43 -55 2 -19 -2 -30 -15 -34 -17
-7 -17 -8 0 -17 9 -6 17 -14 17 -19 0 -17 -25 -11 -39 9 -8 11 -20 17 -28 14
-7 -3 -13 -2 -13 1 0 14 125 154 133 149 5 -3 4 -9 -3 -13z m-213 -115 c-23
-22 -33 -18 -12 5 10 11 20 18 23 16 2 -3 -3 -12 -11 -21z m104 -35 c5 0 9 -4
9 -10 0 -5 -5 -9 -12 -7 -6 1 -18 -11 -26 -26 -7 -15 -26 -33 -40 -39 -15 -6
-22 -12 -14 -15 19 -7 14 -31 -9 -44 -17 -9 -24 -7 -40 10 -19 20 -18 21 38
81 35 38 61 59 70 55 8 -3 19 -5 24 -5z m-1 -47 c0 -14 -19 -38 -25 -32 -8 8
5 39 16 39 5 0 9 -3 9 -7z m-3650 -13 c0 -5 -4 -10 -10 -10 -5 0 -10 5 -10 10
0 6 5 10 10 10 6 0 10 -4 10 -10z m3478 -77 c-20 -24 -30 -53 -18 -53 6 0 10
-4 10 -10 0 -5 -13 -10 -29 -10 -19 0 -35 -9 -50 -29 -13 -17 -35 -31 -52 -33
-16 -3 -29 -2 -28 1 1 6 170 149 178 150 2 1 -3 -7 -11 -16z m18 -30 c-10 -10
-19 5 -10 18 6 11 8 11 12 0 2 -7 1 -15 -2 -18z m14 -23 c0 -5 -4 -10 -10 -10
-5 0 -10 5 -10 10 0 6 5 10 10 10 6 0 10 -4 10 -10z m-206 -99 c9 -15 -5 -43
-19 -37 -13 5 -39 -40 -30 -54 11 -18 -22 -31 -51 -20 -20 8 -30 8 -32 1 -2
-6 -14 -11 -27 -11 -24 0 -38 -21 -29 -44 3 -8 -4 -16 -18 -19 -13 -4 -25 -2
-27 4 -2 7 -7 6 -12 -2 -8 -12 -11 -11 -19 1 -8 13 -10 12 -10 -3 0 -10 7 -25
15 -33 8 -9 15 -20 15 -25 0 -14 -53 1 -67 19 -9 11 -13 12 -13 3 0 -7 -4 -9
-10 -6 -19 12 -10 24 44 54 58 34 71 38 60 19 -4 -8 -3 -10 2 -5 5 5 7 10 4
13 -6 4 65 54 76 54 4 0 18 10 31 22 l23 21 0 -22 c0 -20 2 -22 16 -10 10 8
12 15 5 17 -6 2 -11 8 -11 14 0 6 7 8 15 4 8 -3 15 0 15 6 0 13 30 48 41 48 4
0 10 -4 13 -9z m-2834 -160 c0 -12 -20 -25 -27 -18 -7 7 6 27 18 27 5 0 9 -4
9 -9z m2480 -55 c0 -2 3 -12 7 -22 5 -15 2 -16 -24 -11 -23 4 -33 2 -37 -9 -3
-8 -10 -13 -15 -9 -5 3 -12 1 -16 -5 -3 -5 -1 -10 4 -10 6 0 11 -5 11 -11 0
-6 -7 -9 -15 -5 -8 3 -15 1 -15 -5 0 -6 -7 -8 -16 -5 -9 4 -24 0 -33 -8 -16
-14 -71 -11 -71 4 0 4 17 12 38 18 20 6 66 27 102 46 63 34 80 41 80 32z
m-2092 -111 c2 -8 8 -15 13 -15 6 0 7 -5 4 -10 -4 -6 -11 -8 -16 -5 -5 4 -9 1
-9 -5 0 -25 -23 -2 -26 25 -3 28 -26 53 -32 35 -2 -6 -12 -10 -22 -10 -12 0
-17 8 -17 24 l0 24 51 -24 c28 -13 52 -30 54 -39z m-138 25 c0 -5 -7 -10 -15
-10 -8 0 -15 5 -15 10 0 6 7 10 15 10 8 0 15 -4 15 -10z m222 -40 c7 -1 27 -7
43 -15 l30 -15 -37 5 c-25 4 -38 2 -38 -5 0 -6 -10 -10 -22 -8 -17 2 -23 9
-22 26 0 12 -5 22 -13 22 -7 0 -13 5 -13 10 0 6 13 4 30 -5 16 -8 35 -15 42
-15z m1788 -2 c0 -8 -35 -21 -65 -25 -41 -5 -115 -9 -112 -7 2 2 39 16 83 32
73 26 93 26 94 0z m-1620 -51 c14 -6 28 -11 32 -11 3 -1 9 -4 13 -8 4 -4 14
-4 23 0 15 5 15 4 0 -12 -14 -13 -22 -15 -37 -6 -16 8 -22 6 -30 -7 -10 -16
-12 -17 -21 -2 -5 9 -23 22 -40 29 -42 17 -40 41 3 33 17 -3 43 -11 57 -16z
m1400 -12 c-1 -22 -12 -45 -22 -45 -6 0 -8 9 -5 20 3 13 0 20 -10 20 -8 0 -12
4 -9 9 7 11 46 8 46 -4z m-60 -5 c0 -5 -4 -10 -10 -10 -5 0 -10 5 -10 10 0 6
5 10 10 10 6 0 10 -4 10 -10z m-33 -19 c1 -16 -6 -18 -63 -18 -73 1 -74 7 -1
23 29 6 54 12 57 13 3 0 6 -7 7 -18z m-1132 -11 l20 -9 -20 0 c-11 0 -29 4
-40 9 l-20 9 20 0 c11 0 29 -4 40 -9z m1165 0 c0 -5 -4 -10 -10 -10 -5 0 -10
5 -10 10 0 6 5 10 10 10 6 0 10 -4 10 -10z m-1071 -16 c2 -2 -12 -4 -32 -4
-20 0 -37 4 -37 10 0 8 58 3 69 -6z m891 6 c0 -5 -7 -10 -16 -10 -8 0 -12 5
-9 10 3 6 10 10 16 10 5 0 9 -4 9 -10z m-45 -10 c-3 -5 -10 -10 -16 -10 -5 0
-9 5 -9 10 0 6 7 10 16 10 8 0 12 -4 9 -10z m-792 -7 c-7 -2 -13 -11 -13 -18
0 -17 -62 -14 -68 4 -3 9 0 12 10 9 8 -4 21 -2 29 3 8 5 23 8 34 8 11 0 14 -3
8 -6z m747 -1 c0 -5 -21 -9 -47 -9 -46 -1 -46 0 -13 7 51 11 60 11 60 2z
m-693 -8 c-3 -3 -12 -4 -19 -1 -8 3 -5 6 6 6 11 1 17 -2 13 -5z m597 -25 c-2
-4 -21 -2 -41 4 -34 11 -35 12 -12 17 24 7 61 -8 53 -21z m156 21 c0 -5 -4
-10 -10 -10 -5 0 -10 5 -10 10 0 6 5 10 10 10 6 0 10 -4 10 -10z m-795 -9 c3
-5 1 -12 -5 -16 -5 -3 -10 1 -10 9 0 18 6 21 15 7z m118 2 c-7 -2 -21 -2 -30
0 -10 3 -4 5 12 5 17 0 24 -2 18 -5z m122 -3 c26 -7 22 -8 -22 -9 -30 0 -53 3
-53 9 0 11 31 11 75 0z m285 0 c0 -6 -23 -9 -52 -9 -49 2 -51 2 -18 9 53 11
70 11 70 0z m-110 -10 c0 -5 -4 -10 -10 -10 -5 0 -10 5 -10 10 0 6 5 10 10 10
6 0 10 -4 10 -10z m350 0 c0 -5 -4 -10 -10 -10 -5 0 -10 5 -10 10 0 6 5 10 10
10 6 0 10 -4 10 -10z"/>
<path d="M1630 4380 l-75 -6 93 -2 c60 -1 91 2 87 8 -3 6 -12 9 -18 8 -7 -1
-46 -4 -87 -8z"/>
<path d="M1498 4373 c7 -3 16 -2 19 1 4 3 -2 6 -13 5 -11 0 -14 -3 -6 -6z"/>
<path d="M1355 4363 c-47 -4 -288 -43 -295 -48 -3 -2 -26 -6 -50 -10 -25 -4
-56 -16 -70 -29 -14 -13 -44 -34 -66 -47 -23 -13 -63 -44 -90 -69 l-48 -44 -1
-126 c-1 -95 -6 -134 -19 -163 -9 -22 -15 -44 -13 -50 3 -7 9 -1 15 13 5 14
22 52 37 85 14 33 33 76 41 95 9 19 19 44 24 55 5 11 18 43 30 70 12 28 27 63
34 78 l13 29 48 -79 c26 -43 57 -92 68 -109 12 -18 27 -40 33 -50 7 -11 15
-16 19 -12 8 7 -30 89 -46 99 -5 3 -1 22 9 43 l19 38 18 -29 c31 -48 195 -247
228 -275 25 -22 41 -28 79 -28 l48 0 0 58 c0 93 11 447 15 450 1 2 11 -5 21
-15 17 -17 17 -17 12 5 -3 12 -3 22 0 22 4 0 7 11 7 25 0 14 -3 25 -7 25 -5 0
-8 -5 -8 -12 0 -9 -3 -9 -12 0 -7 7 -21 11 -32 10 -12 -1 -39 -3 -61 -5z"/>
<path d="M1925 4240 c3 -5 8 -10 11 -10 2 0 4 5 4 10 0 6 -5 10 -11 10 -5 0
-7 -4 -4 -10z"/>
<path d="M677 3723 c-8 -21 -17 -54 -21 -73 -6 -31 -4 -30 12 12 21 51 35 98
28 98 -2 0 -11 -17 -19 -37z"/>
<path d="M633 3477 c0 -56 3 -70 19 -78 22 -12 24 3 3 21 -8 7 -16 35 -18 68
-3 54 -3 54 -4 -11z"/>
<path d="M1060 3495 c0 -14 4 -25 9 -25 4 0 6 11 3 25 -2 14 -6 25 -8 25 -2 0
-4 -11 -4 -25z"/>
<path d="M1874 3209 c-8 -13 25 -30 52 -26 44 6 40 24 -6 29 -23 2 -43 1 -46
-3z"/>
<path d="M1760 3180 c-39 -9 -10 -16 40 -10 41 5 42 6 15 11 -17 3 -41 2 -55
-1z"/>
<path d="M680 3151 c0 -6 4 -13 10 -16 6 -3 7 1 4 9 -7 18 -14 21 -14 7z"/>
<path d="M1961 3094 c0 -11 3 -14 6 -6 3 7 2 16 -1 19 -3 4 -6 -2 -5 -13z"/>
<path d="M730 3032 c6 -13 14 -21 18 -18 3 4 -2 14 -12 24 -18 16 -18 16 -6
-6z"/>
<path d="M740 2996 c0 -2 7 -9 15 -16 13 -11 14 -10 9 4 -5 14 -24 23 -24 12z"/>
<path d="M770 2950 c0 -5 5 -10 11 -10 5 0 7 5 4 10 -3 6 -8 10 -11 10 -2 0
-4 -4 -4 -10z"/>
<path d="M810 2891 c0 -6 4 -13 10 -16 6 -3 7 1 4 9 -7 18 -14 21 -14 7z"/>
<path d="M1356 4790 c-19 -6 -19 -7 2 -12 12 -4 24 -2 27 2 8 13 -8 18 -29 10z"/>
<path d="M4285 4370 c3 -5 8 -10 11 -10 2 0 4 5 4 10 0 6 -5 10 -11 10 -5 0
-7 -4 -4 -10z"/>
<path d="M4363 4320 c1 -11 5 -20 9 -20 11 0 10 28 -1 35 -6 3 -9 -4 -8 -15z"/>
<path d="M505 4071 c-3 -5 -1 -12 5 -16 5 -3 10 1 10 9 0 18 -6 21 -15 7z"/>
<path d="M490 4019 c0 -5 5 -7 10 -4 6 3 10 8 10 11 0 2 -4 4 -10 4 -5 0 -10
-5 -10 -11z"/>
<path d="M295 1400 c3 -5 8 -10 11 -10 2 0 4 5 4 10 0 6 -5 10 -11 10 -5 0 -7
-4 -4 -10z"/>
<path d="M3864 609 c-13 -5 -7 -8 24 -8 23 -1 42 1 42 3 0 8 -48 12 -66 5z"/>
<path d="M4420 885 c-10 -12 -10 -15 4 -15 9 0 16 7 16 15 0 8 -2 15 -4 15 -2
0 -9 -7 -16 -15z"/>
</g>
</svg>
