<?xml version="1.0" ?><!DOCTYPE svg  PUBLIC '-//W3C//DTD SVG 1.1//EN'  'http://www.w3.org/Graphics/SVG/1.1/DTD/svg11.dtd'><svg height="512px" style="enable-background:new 0 0 512 512;" version="1.1" viewBox="0 0 512 512" width="512px" xml:space="preserve" xmlns="http://www.w3.org/2000/svg" xmlns:xlink="http://www.w3.org/1999/xlink"><g id="C_-_95_x2C__Profile_x2C__About_x2C__contact_x2C__delete_x2C__file_x2C__personal"><g><path d="M157.407,46.168v35.32h246.771c2.588,0,4.686,2.098,4.686,4.686v334.966    h35.532V46.168H157.407z" style="fill-rule:evenodd;clip-rule:evenodd;"/><path d="M67.604,90.86v374.972h331.89v-40.006V90.86H152.722H67.604z     M359.277,394.271H108.265c-2.587,0-4.686-2.098-4.686-4.686s2.098-4.686,4.686-4.686h251.013c2.588,0,4.686,2.098,4.686,4.686    S361.865,394.271,359.277,394.271z M359.277,358.511H108.265c-2.587,0-4.686-2.098-4.686-4.686s2.098-4.686,4.686-4.686h251.013    c2.588,0,4.686,2.098,4.686,4.686S361.865,358.511,359.277,358.511z M359.277,322.756H108.265c-2.587,0-4.686-2.098-4.686-4.686    s2.098-4.686,4.686-4.686h251.013c2.588,0,4.686,2.098,4.686,4.686S361.865,322.756,359.277,322.756z M260.492,170.366h98.785    c2.588,0,4.686,2.098,4.686,4.686c0,2.588-2.098,4.686-4.686,4.686h-98.785c-2.588,0-4.686-2.097-4.686-4.686    C255.806,172.464,257.904,170.366,260.492,170.366z M260.492,206.119h98.785c2.588,0,4.686,2.098,4.686,4.686    c0,2.588-2.098,4.686-4.686,4.686h-98.785c-2.588,0-4.686-2.097-4.686-4.686C255.806,208.216,257.904,206.119,260.492,206.119z     M260.492,241.875h98.785c2.588,0,4.686,2.098,4.686,4.686s-2.098,4.686-4.686,4.686h-98.785c-2.588,0-4.686-2.098-4.686-4.686    S257.904,241.875,260.492,241.875z M260.492,277.629h98.785c2.588,0,4.686,2.098,4.686,4.686S361.865,287,359.277,287h-98.785    c-2.588,0-4.686-2.098-4.686-4.686S257.904,277.629,260.492,277.629z M229.254,247.26v35.05c0,2.588-2.098,4.685-4.686,4.685    H98.846c-2.587,0-4.686-2.097-4.686-4.685v-34.777c0-17.907,14.625-32.476,32.603-32.476h70.16    C214.75,215.056,229.254,229.502,229.254,247.26z M202.304,158.614c0,22.298-18.217,40.44-40.608,40.44    c-22.385,0-40.597-18.142-40.597-40.44c0-22.297,18.211-40.438,40.597-40.438C184.087,118.176,202.304,136.317,202.304,158.614z" style="fill-rule:evenodd;clip-rule:evenodd;"/><path d="M126.763,224.427c-12.81,0-23.232,10.365-23.232,23.105v30.092h116.352    V247.26c0-12.59-10.3-22.833-22.96-22.833H126.763z M170.686,255.494h-17.964v-17.876h17.964V255.494z" style="fill-rule:evenodd;clip-rule:evenodd;"/><path d="M161.695,189.683c17.225,0,31.237-13.938,31.237-31.069    c0-17.13-14.013-31.067-31.237-31.067c-17.218,0-31.226,13.937-31.226,31.067C130.469,175.746,144.478,189.683,161.695,189.683z" style="fill-rule:evenodd;clip-rule:evenodd;"/></g></g><g id="Layer_1"/></svg>