<svg xmlns="http://www.w3.org/2000/svg" viewBox="0 0 48 48" width="480" height="480"><path fill="#3498db" d="M41.1,39.7L40.3,41c-1.6,2.9-5.3,3.8-8.2,2.2l-12.1-7l3.8-6.5L41.1,39.7z"/><path fill="#e74c3c" d="M44.9,36.8c-1,3.1-4.4,4.9-7.5,3.9L24,36.5l1.8-5.7L44.9,36.8z"/><path fill="#f39c12" d="M16.9,43c0,0-0.1,0-0.1,0c-0.5-0.1-0.9-0.6-0.9-1.1l1-7.9c0.1-0.5,0.6-0.9,1.1-0.9 c0.5,0.1,0.9,0.6,0.9,1.1l-1,7.9C17.9,42.6,17.4,43,16.9,43z"/><path fill="#f39c12" d="M12,44c-0.4,0-0.7-0.2-0.9-0.6c-0.2-0.5,0-1.1,0.4-1.3C13.7,41,16.9,41,17,41h2c0.6,0,1,0.4,1,1 s-0.4,1-1,1h-2c0,0-2.8,0-4.6,0.9C12.3,44,12.2,44,12,44z"/><path fill="#f1c40f" d="M18.9,43.9c0,0-0.1,0-0.1,0c-0.5-0.1-0.9-0.6-0.9-1.1l1-7.9c0.1-0.5,0.6-0.9,1.1-0.9 c0.5,0.1,0.9,0.6,0.9,1.1l-1,7.9C19.9,43.6,19.4,43.9,18.9,43.9z"/><path fill="#f1c40f" d="M14,45c-0.4,0-0.7-0.2-0.9-0.6c-0.2-0.5,0-1.1,0.4-1.3C15.7,42,18.9,42,19,42h2c0.6,0,1,0.4,1,1 s-0.4,1-1,1h-2c0,0-2.8,0-4.6,0.9C14.3,45,14.2,45,14,45z"/><path fill="#e74c3c" d="M24,35.5c0,2.5-2,4.5-4.5,4.5S15,38,15,35.5s2-4.5,4.5-4.5S24,33,24,35.5z"/><path fill="#e74c3c" d="M16,15c0,0.3,0,0.4,0,1c0,2.3,1.2,4.7,2.7,6.2c0,0,0.1,0.1,0.1,0.1l0.7,0.6l5.3,4.6L32,34 c-3.5,3-8.3,4.4-13.3,3.9C10.4,37.1,3.6,30.2,3,21.8C2.3,12,9.7,3.8,19.1,3.1c0.2,0,0.4,0,0.6,0c0.3,0,0.5,0,0.8,0s0.5,0,0.8,0 c0.2,0,0.4,0,0.6,0c6.5,0.7,9.1,6.3,8.9,13.1c0,0,0,0,0,0c0-4.2-2.7-4.6-6.8-5.2C23.6,10.9,16.4,11.1,16,15z"/><path fill="#ecf0f1" d="M26,8v3.5l-6.2,8.8c-2-0.9-3.8-3-3.8-5.2c0-3.8,3.7-6.6,7.7-7.1c0.3,0,0.7-0.1,1-0.1 C25.2,8,25.6,8,26,8z"/><path fill="#f39c12" d="M26,11.5v8.7c-0.9,0.5-2,0.7-3.1,0.7c-1.1,0-2.2-0.3-3.1-0.7L26,11.5z"/><path fill="#f1c40f" d="M33,15.4c0,0.8-0.2,1.6-0.4,2.4c0,0,0,0,0,0.1c-0.9,2.7-3.5,4.7-6.6,5.1V8 C29.9,8.5,32.9,11.6,33,15.4z"/><path fill="#00351d" d="M24,11.5c0,0.8-0.7,1.5-1.5,1.5S21,12.3,21,11.5s0.7-1.5,1.5-1.5S24,10.7,24,11.5z"/><path fill="#2ecc71" d="M32.6 32.9L29.8 32l-5-4.4-5.3-4.6-.7-.6c0 0-.1-.1-.1-.1-1-1-1.9-2.5-2.4-4C14.9 20.1 14 22.4 14 25c0 6.1 4.9 11 11 11C28 36 30.6 34.8 32.6 32.9zM30.8 15.6C30.8 15.6 30.8 15.6 30.8 15.6c0 .2 0 .3 0 .5 0 0 0 0 0 0C30.8 16 30.8 15.8 30.8 15.6z"/><path fill="#f1c40f" d="M29.7,31.9c-1.4,0.7-3,1.1-4.7,1.1c-5.6,0-10.2-4.1-10.9-9.5c0.3-2,1.1-3.8,2.2-5.3 c0.5,1.6,1.3,3,2.4,4c0.1,0.1,0.1,0.1,0.1,0.1l0.7,0.6l5.3,4.6L29.7,31.9z"/><path fill="#e74c3c" d="M27.3,29.8C26.5,29.9,25.8,30,25,30c-5,0-9.3-3.4-10.6-8c-0.1-1.8,0.5-3.1,1.9-3.8 c0.5,1.6,1.3,3,2.4,4c0.1,0.1,0.1,0.1,0.1,0.1l0.7,0.6l5.3,4.6L27.3,29.8z"/></svg>