<?xml version="1.0" ?><!DOCTYPE svg  PUBLIC '-//W3C//DTD SVG 1.1//EN'  'http://www.w3.org/Graphics/SVG/1.1/DTD/svg11.dtd'><svg height="63.994px" id="Layer_1" style="enable-background:new 0 0 64.002 63.994;" version="1.1" viewBox="0 0 64.002 63.994" width="64.002px" xml:space="preserve" xmlns="http://www.w3.org/2000/svg" xmlns:xlink="http://www.w3.org/1999/xlink"><g id="Github_Logo"><g><path d="M32.001,0C14.328,0,0,14.327,0,31.997C0,49.67,14.328,63.994,32.001,63.994    c17.672,0,32.001-14.324,32.001-31.997C64.002,14.327,49.674,0,32.001,0z M40.967,56.374c-0.184-2.504-0.391-5.604-0.402-6.861    c-0.081-0.964-0.184-3.414-2.512-4.98c9.242-0.774,13.641-5.883,13.956-12.633c0.264-3.844-1.264-7.223-3.979-9.95    c0.139-2.917-0.088-6.375-0.275-7.896c-2.084-0.601-6.944,1.966-8.303,3.063c-2.864-1.111-9.875-1.501-14.136,0    c-3.021-2.122-6.459-3.436-8.333-3.069c-1.729,3.833-0.617,7.459-0.279,7.89c-2.229,2.035-5.337,4.543-4.493,9.79    c1.354,7.696,6.77,11.849,15.491,12.864c-1.86,0.381-2.174,1.768-2.331,2.369c-5.856,2.415-7.529-1.492-8.271-2.509    c-2.458-3.043-4.664-2.161-4.801-2.111c-0.132,0.048-0.231,0.239-0.218,0.332c0.123,0.655,1.463,1.322,1.527,1.376    c1.813,1.352,2.485,3.796,2.899,4.49c2.602,4.277,8.651,2.504,8.708,2.539c0.005,0.372-0.041,3.521-0.078,5.972    C14.115,54.037,6,43.979,6,31.997C6,17.639,17.641,5.999,32.001,5.999c14.36,0,26.001,11.64,26.001,25.998    C58.002,43.202,50.903,52.721,40.967,56.374z" style="fill:#666666;"/></g></g><g/><g/><g/><g/><g/><g/><g/><g/><g/><g/><g/><g/><g/><g/><g/></svg>